<?xml version="1.0" encoding="utf-8"?>
<!-- Generator: Adobe Illustrator 19.0.0, SVG Export Plug-In . SVG Version: 6.00 Build 0)  -->
<svg version="1.1" xmlns="http://www.w3.org/2000/svg" xmlns:xlink="http://www.w3.org/1999/xlink" x="0px" y="0px"
	 viewBox="0 0 161.7 77.6" style="enable-background:new 0 0 161.7 77.6;" xml:space="preserve">
<style type="text/css">
	.st0{fill:#FFFFFF;}
	.st1{fill:#EF0D33;}
</style>
<g id="Layer_1">
	<g id="XMLID_3_">
		<path id="XMLID_11_" class="st0" d="M0,0h8.3v43.3H0V0z"/>
		<path id="XMLID_13_" class="st0" d="M26.5,43.7c-4.1,0-7.5-1.3-10.3-4c-2.8-2.7-4.2-6.2-4.2-10.6s1.4-7.8,4.2-10.5
			c2.8-2.7,6.2-4,10.3-4c4.1,0,7.5,1.3,10.3,4c2.8,2.7,4.3,6.2,4.3,10.5s-1.4,7.9-4.3,10.6C34,42.4,30.5,43.7,26.5,43.7z M32.8,29.2
			c0-3.7-2.8-6.4-6.4-6.4c-3.5,0-6.3,2.7-6.3,6.4c0,3.8,2.8,6.4,6.3,6.4C30.1,35.6,32.8,33,32.8,29.2z"/>
		<path id="XMLID_16_" class="st0" d="M62.7,15.2H71v28h-8.3v-3.8c-1.4,2.7-4.4,4.4-7.3,4.4c-6.5,0-11.1-4.2-11.1-11.9V15.2h8.3
			v14.9c0,4,2.5,5.6,5,5.6c2.9,0,5-1.8,5-5.7V15.2z"/>
		<path id="XMLID_18_" class="st0" d="M104.8,43.3h-8.3v-3.5c-1.4,2.6-4.6,4.1-8.2,4.1c-3.7,0-6.9-1.3-9.6-4c-2.6-2.7-4-6.2-4-10.5
			c0-4.4,1.3-7.9,4-10.6c2.7-2.7,5.9-4.1,9.6-4.1c3.6,0,6.8,1.6,8.2,4V0h8.3V43.3z M89.8,22.5c-3.6,0-6.5,2.8-6.5,6.7
			c0,4.1,2.9,6.8,6.5,6.8c3.6,0,6.5-2.9,6.5-6.8C96.3,25.1,93.4,22.5,89.8,22.5z"/>
		<path id="XMLID_21_" class="st0" d="M135.8,38.2c-2.6,3.8-6.8,5.7-12.8,5.7c-4.1,0-7.6-1.4-10.4-4.1c-2.8-2.8-4.2-6.3-4.2-10.6
			s1.4-7.8,4.2-10.5c2.8-2.7,6.3-4,10.4-4c4.1,0,7.5,1.4,10.2,4.1c2.8,2.7,4.1,6.2,4.1,10.6c0,0.8-0.1,1.6-0.1,2.6h-20.5
			c0.4,3.1,3.6,4.7,6.9,4.7c2.7,0,4.7-0.9,6.1-2.6L135.8,38.2z M128.9,26.8c-0.8-6.4-10.8-6.4-12.1,0H128.9z"/>
		<path id="XMLID_24_" class="st0" d="M149,43.3h-8.3v-28h8.3V22c1.4-4.9,4.7-7.4,7.9-7.4c1.9,0,3.4,0.4,4.8,1l-1.5,7.5
			c-1.1-0.5-2.6-0.8-4.3-0.8c-4.6,0-7,3.7-7,11.2V43.3z"/>
	</g>
	<g id="XMLID_2_">
		<path id="XMLID_4_" class="st0" d="M8.3,77.6H0v-28h8.3v4.1c1.5-2.8,4.8-4.7,8.1-4.7c6.5,0,10.3,4,10.3,11.9v16.7h-8.3V62.6
			c0-3.6-1.9-5.6-4.9-5.6c-3.4,0-5.2,1.9-5.2,5.7V77.6z"/>
		<path id="XMLID_6_" class="st0" d="M44.5,78c-4.1,0-7.5-1.3-10.3-4c-2.8-2.7-4.2-6.2-4.2-10.6s1.4-7.8,4.2-10.5
			c2.8-2.7,6.2-4,10.3-4c4.1,0,7.5,1.3,10.3,4c2.8,2.7,4.3,6.2,4.3,10.5s-1.4,7.9-4.3,10.6C52,76.7,48.6,78,44.5,78z M50.9,63.5
			c0-3.7-2.8-6.4-6.4-6.4c-3.5,0-6.3,2.7-6.3,6.4c0,3.8,2.8,6.4,6.3,6.4C48.1,69.9,50.9,67.3,50.9,63.5z"/>
		<path id="XMLID_9_" class="st0" d="M103.6,49.5l-9.8,28h-7l-5.5-17.8L76,77.6h-7l-10.1-28h8.9l5,16.7l4.9-16.7h7.1l4.9,16.7
			l5-16.7H103.6z"/>
	</g>
	<g id="XMLID_26_">
		<path id="XMLID_27_" class="st1" d="M105.3,78c-2.9,0-5.2-2.2-5.2-5s2.3-5,5.2-5s5.2,2.2,5.2,5C110.5,75.9,108.2,78,105.3,78z"/>
	</g>
</g>
<g id="Layer_2">
</g>
</svg>
