<?xml version="1.0" encoding="UTF-8"?>
<svg width="150px" height="86px" viewBox="0 0 150 86" version="1.1" xmlns="http://www.w3.org/2000/svg" xmlns:xlink="http://www.w3.org/1999/xlink">
    <!-- Generator: Sketch 53.2 (72643) - https://sketchapp.com -->
    <title>Group 2</title>
    <desc>Created with Sketch.</desc>
    <g id="Page-1" stroke="none" stroke-width="1" fill="none" fill-rule="evenodd">
        <g id="Artboard" transform="translate(-200.000000, -200.000000)" fill="#DCFA50">
            <g id="Group-2" transform="translate(200.000000, 200.000000)">
                <path d="M21,24.1581752 L21,0.84036074 C21,0.376259077 20.6206945,0 20.1561187,0 L17.9758471,0 C17.5098012,0 17.1304957,0.376259077 17.1304957,0.84036074 L17.1304957,18.6709417 L4.34878185,0.35869056 C4.1900028,0.134691965 3.93272193,0 3.65485858,0 L0.843881266,0 C0.379305517,0 0,0.376259077 0,0.84036074 L0,24.1581752 C0,24.6222769 0.379305517,25 0.843881266,25 L3.0241529,25 C3.491669,25 3.87097452,24.6222769 3.87097452,24.1581752 L3.87097452,6.32759428 L16.6526883,24.6398454 C16.8099972,24.865308 17.0687482,25 17.3480818,25 L20.1561187,25 C20.6206945,25 21,24.6222769 21,24.1581752" id="Fill-1"></path>
                <path d="M43,24.1581752 L43,22.181717 C43,21.7176154 42.610064,21.3398922 42.1309566,21.3398922 L29.979463,21.3398922 L29.979463,13.9332982 L40.8069879,13.9332982 C41.2860953,13.9332982 41.6760313,13.5570391 41.6760313,13.0914734 L41.6760313,11.1164793 C41.6760313,10.6523776 41.2860953,10.2746545 40.8069879,10.2746545 L29.979463,10.2746545 L29.979463,3.66010775 L41.5868599,3.66010775 C42.0674787,3.66010775 42.4574147,3.28238463 42.4574147,2.81828297 L42.4574147,0.84036074 C42.4574147,0.376259077 42.0674787,0 41.5868599,0 L26.867532,0 C26.389936,0 26,0.376259077 26,0.84036074 L26,24.1581752 C26,24.6222769 26.389936,25 26.867532,25 L42.1309566,25 C42.610064,25 43,24.6222769 43,24.1581752" id="Fill-3"></path>
                <path d="M77.9654117,1.07753572 C78.0413566,0.822792223 77.9907267,0.54755212 77.828413,0.336729913 C77.6660993,0.124443664 77.4114604,0 77.1419303,0 L74.8650712,0 C74.4808792,0 74.1443389,0.251815413 74.0386116,0.614898103 L68.929453,18.5201452 L63.7309475,0.611970016 C63.6281984,0.25035137 63.2916581,0 62.9089552,0 L60.0945251,0 C59.7118222,0 59.3752818,0.25035137 59.2710437,0.611970016 L54.071049,18.5142891 L48.9589122,0.614898103 C48.8546741,0.251815413 48.5181338,0 48.1339417,0 L45.8570826,0 C45.5875526,0 45.3344028,0.124443664 45.1720891,0.336729913 C45.0097754,0.54755212 44.9591454,0.822792223 45.0336012,1.07753572 L51.9371451,24.3953502 C52.0443615,24.7525767 52.3794127,25 52.7591374,25 L55.4723076,25 C55.8550105,25 56.1900617,24.7511127 56.295789,24.389494 L61.500251,6.37883579 L66.7062022,24.389494 C66.8134185,24.7511127 67.1469806,25 67.5311727,25 L70.2428537,25 C70.6240676,25 70.9591188,24.7525767 71.0663351,24.3953502 L77.9654117,1.07753572 Z" id="Fill-5"></path>
                <path d="M32.9654136,31.0775357 C33.0413543,30.8227922 32.9907272,30.5475521 32.8284224,30.3367299 C32.6661177,30.1244437 32.4114928,30 32.1419775,30 L29.8637549,30 C29.481073,30 29.1445513,30.2518154 29.0388298,30.6148981 L23.9299527,48.5201452 L18.7317335,30.61197 C18.6289901,30.2488873 18.2924684,30 17.9097865,30 L15.0940224,30 C14.7113406,30 14.3748188,30.2488873 14.2690973,30.61197 L9.07087816,48.5142891 L3.96051201,30.6148981 C3.85479056,30.2518154 3.51975782,30 3.13558694,30 L0.857364264,30 C0.587849033,30 0.33471318,30.1244437 0.170919394,30.3367299 C0.0086146412,30.5475521 -0.0405234948,30.8227922 0.0339282264,31.0775357 L6.93709182,54.3953502 C7.0443023,54.7525767 7.37784601,55 7.75903883,55 L10.4735486,55 C10.8562304,55 11.1912632,54.7511127 11.2969846,54.389494 L16.5011599,36.3788358 L21.7053353,54.389494 C21.8110567,54.7511127 22.1460894,55 22.5302603,55 L25.241792,55 C25.6214958,55 25.9580176,54.7525767 26.0652281,54.3953502 L32.9654136,31.0775357 Z" id="Fill-8"></path>
                <path d="M80.8786185,53.7218904 C81.0359229,53.98249 81.0403333,54.3075076 80.8918497,54.5724994 C80.7404258,54.8360272 80.45963,55 80.1553121,55 L77.6737244,55 C77.3752871,55 77.0989017,54.8433474 76.9474778,54.5871398 L70.6097264,43.9347622 L67.8679248,43.9347622 L67.8679248,54.1596393 C67.8679248,54.6237409 67.4901002,55 67.0225973,55 L64.8438574,55 C64.3778247,55 64,54.6237409 64,54.1596393 L64,30.8418248 C64,30.3777231 64.3778247,30 64.8438574,30 L70.9934316,30 C71.3124508,30 71.7402601,30.0117123 72.28421,30.033673 C72.8590327,30.0585617 73.4764894,30.1302998 74.1204085,30.2459592 C74.7834393,30.3616186 75.4655819,30.5534083 76.153605,30.8125439 C76.8901426,31.0892481 77.5590539,31.4991801 78.1441676,32.0306278 C78.7322215,32.5664676 79.2203063,33.2413914 79.598131,34.040759 C79.9788959,34.8489108 80.1714836,35.8342118 80.1714836,36.9673811 C80.1714836,38.2249941 79.9421425,39.2893535 79.4937514,40.1297142 C79.0585915,40.9525064 78.4896493,41.6362146 77.8089768,42.161806 C77.1518266,42.671293 76.4108786,43.0548723 75.6111252,43.3052237 C75.2965163,43.4018506 74.9907283,43.4867651 74.6922909,43.5585032 L80.8786185,53.7218904 Z M71.6549923,40.2761185 C72.6929075,40.2761185 73.5250038,40.1516749 74.1336397,39.9071797 C74.7319846,39.6714687 75.1936069,39.3845163 75.5052755,39.0565706 C75.8110636,38.7374092 76.0080616,38.4065355 76.1183217,38.0463809 C76.2388728,37.6364488 76.3006185,37.2733661 76.3006185,36.9673811 C76.3006185,36.6657882 76.2388728,36.3012415 76.1168516,35.8854533 C76.0080616,35.5282268 75.8110636,35.1988171 75.5052755,34.8811197 C75.1965472,34.5546381 74.7349248,34.2676856 74.1336397,34.0275826 C73.5250038,33.7845514 72.6914374,33.6601078 71.6549923,33.6601078 L67.8679248,33.6601078 L67.8679248,40.2761185 L71.6549923,40.2761185 Z" id="Combined-Shape"></path>
                <path d="M107,42.5 C107,42.8015929 106.96855,43.315472 106.896664,44.0445655 C106.824779,44.7897634 106.655548,45.6023073 106.375494,46.5275826 C106.102927,47.4367533 105.66712,48.4015577 105.084547,49.3927149 C104.486998,50.4043687 103.661811,51.3398922 102.629952,52.1729328 C101.602587,53.0001171 100.307148,53.6852893 98.7795779,54.2123448 C97.2535058,54.7350082 95.3889721,55 93.2383935,55 L85.86113,55 C85.3848877,55 85,54.6237409 85,54.1581752 L85,30.8418248 C85,30.3762591 85.3848877,30 85.86113,30 L93.2383935,30 C95.3889721,30 97.2535058,30.2649918 98.7780803,30.7891192 C100.308645,31.3147107 101.604084,31.9998829 102.629952,32.8270672 C103.660313,33.6557156 104.484003,34.5927032 105.08305,35.605821 C105.66712,36.5999063 106.102927,37.5647107 106.375494,38.4753455 C106.649558,39.3830522 106.826276,40.2175568 106.896664,40.9554345 C106.96855,41.684528 107,42.1998712 107,42.5 Z M102.258543,46.474877 C102.787202,45.3739166 103.053778,44.0372453 103.053778,42.5 C103.053778,40.9627547 102.787202,39.6260834 102.258543,38.526587 C101.737372,37.4329468 101.014023,36.5193839 100.11096,35.8151792 C99.194418,35.0977981 98.0951668,34.5546381 96.8401634,34.2032677 C95.5492172,33.8431131 94.1459496,33.6601078 92.6663036,33.6601078 L88.9447243,33.6601078 L88.9447243,51.3398922 L92.6663036,51.3398922 C94.1504425,51.3398922 95.55371,51.1568869 96.8401634,50.7967323 C98.0951668,50.4453619 99.194418,49.9022019 100.11096,49.1877489 C101.012526,48.4806161 101.734377,47.5685172 102.258543,46.474877 Z" id="Combined-Shape"></path>
                <path d="M57.996161,51.7130806 C57.9750553,51.4647126 57.8408834,51.2398588 57.6343491,51.0958347 L55.8328274,49.8554645 C55.4936287,49.6203232 55.0323186,49.657064 54.7323162,49.9362943 C53.9860792,50.6358396 53.1207457,51.1957698 52.1528989,51.6013885 C49.8719764,52.5625284 46.6850167,52.5625284 44.398064,51.6013885 C43.2598641,51.1222881 42.2799568,50.4550747 41.4854782,49.6203232 C40.6849694,48.7796931 40.0608439,47.7744642 39.6281772,46.6296201 C39.1909878,45.4715493 38.9678704,44.2017864 38.9678704,42.8570722 C38.9678704,41.6416857 39.1593292,40.4659794 39.5377242,39.3637546 C39.6598357,39.0110427 39.5271713,38.62159 39.2166161,38.4055539 L37.3412245,37.1137465 C37.1211222,36.9653136 36.8165972,36.9800099 36.5633289,37.0564308 C36.308553,37.1313821 36.0748828,37.3782805 35.9768921,37.6193003 C35.3271383,39.2035646 35,40.9671242 35,42.8570722 C35,44.7455506 35.3271383,46.5135191 35.9753846,48.1095405 C36.626646,49.7158494 37.5447437,51.1237578 38.7025417,52.2891767 C39.8648624,53.4590046 41.281959,54.3789948 42.9131277,55.027103 C44.535251,55.6722718 46.3412954,56 48.276989,56 C50.2126826,56 52.0172195,55.6722718 53.6393428,55.027103 C55.2177472,54.4025089 56.6016777,53.5104417 57.7504304,52.3817636 C57.9298288,52.2054076 58.0202818,51.9599789 57.996161,51.7130806" id="Fill-15"></path>
                <path d="M61,43.1367776 C61,41.2484967 60.6710831,39.486591 60.0223021,37.8995534 C59.3689948,36.2992904 58.4516486,34.9018156 57.2928956,33.7394575 C56.1296162,32.5697519 54.7143684,31.64398 53.0848719,30.9841838 C49.8228615,29.6719387 45.5997499,29.6719387 42.3377394,30.9841838 C40.7761387,31.6160599 39.4016283,32.5036254 38.2549456,33.6263075 C38.0738904,33.8026451 37.9818541,34.0480481 38.0029772,34.2949206 C38.0241003,34.5432626 38.1583828,34.7695624 38.3665963,34.9135714 L40.1499896,36.1405866 C40.489468,36.3742338 40.9511587,36.3404358 41.2514085,36.0582958 C41.998261,35.3588236 42.8643082,34.798952 43.8284269,34.3919063 C46.1172659,33.4323363 49.315907,33.4352752 51.5911669,34.3919063 C52.7287968,34.8709565 53.711021,35.5395696 54.5076637,36.3742338 C55.3027976,37.2059591 55.9289467,38.211083 56.3680055,39.3616853 C56.8055555,40.5240434 57.027348,41.7936735 57.027348,43.1367776 C57.027348,44.3564454 56.8342225,45.5305594 56.4570243,46.6267909 C56.3348121,46.9824049 56.466077,47.3703475 56.7783972,47.5863609 L58.6628796,48.8839111 C58.7835831,48.966202 58.9329536,49 59.0823241,49 C59.2015187,49 59.3252398,48.9779578 59.4368905,48.9456293 C59.6933853,48.8721553 59.9242306,48.6311607 60.0238109,48.3886966 C60.6710831,46.7899031 61,45.023589 61,43.1367776" id="Fill-17"></path>
                <path d="M81.8791489,84.7218904 C82.0349881,84.98249 82.0408688,85.3075076 81.8923805,85.5724994 C81.7409518,85.8360272 81.4601473,86 81.1558198,86 L78.6741541,86 C78.3757074,86 78.0993133,85.8433474 77.9478847,85.5871398 L71.6099341,74.9347622 L68.8680464,74.9347622 L68.8680464,85.1596393 C68.8680464,85.6237409 68.4902099,86 68.0226923,86 L65.8438839,86 C65.3778365,86 65,85.6237409 65,85.1596393 L65,61.8418248 C65,61.3777231 65.3778365,61 65.8438839,61 L71.9921812,61 C72.3126806,61 72.7405033,61.0117123 73.2844703,61.033673 C73.8593111,61.0585617 74.4767872,61.1302998 75.1207265,61.2459592 C75.782308,61.3616186 76.4674123,61.5534083 77.1539869,61.8125439 C77.8861371,62.087784 78.5550695,62.4977161 79.1446121,63.0306278 C79.728274,63.5620754 80.2163741,64.2384633 80.5956808,65.0392949 C80.9793981,65.8489108 81.1705216,66.8327477 81.1705216,67.9673811 C81.1705216,69.2249941 80.9426435,70.2893535 80.4942383,71.1297142 C80.0546542,71.9554345 79.4886344,72.6406067 78.8094108,73.161806 C78.1522399,73.671293 77.4112686,74.0548723 76.6114901,74.3052237 C76.2968713,74.4018506 75.9910737,74.4867651 75.6926269,74.5585032 L81.8791489,84.7218904 Z M72.6552328,71.2761185 C73.6917105,71.2761185 74.523833,71.1516749 75.1339581,70.9071797 C75.7323218,70.6714687 76.1939587,70.3845163 76.5056371,70.0565706 C76.8114347,69.7374092 77.008439,69.4065355 77.1187026,69.0463809 C77.2392574,68.6364488 77.301005,68.2733661 77.301005,67.9673811 C77.301005,67.6657882 77.2392574,67.3012415 77.1157622,66.8854533 C77.008439,66.5282268 76.8114347,66.1988171 76.5056371,65.8811197 C76.196899,65.5546381 75.7352622,65.2676856 75.1339581,65.0275826 C74.523833,64.7845514 73.6887701,64.6601078 72.6552328,64.6601078 L68.8680464,64.6601078 L68.8680464,71.2761185 L72.6552328,71.2761185 Z" id="Combined-Shape"></path>
                <path d="M109,73.5 C109,73.8015929 108.96855,74.314008 108.898162,75.0431014 C108.826276,75.7897634 108.657046,76.6023073 108.376991,77.5275826 C108.098434,78.4440736 107.665623,79.4074139 107.087543,80.3927149 C106.488496,81.4058327 105.663308,82.3413563 104.629952,83.1743968 C103.604084,83.9986531 102.310143,84.6852893 100.781076,85.2123448 C99.256501,85.7350082 97.3904697,86 95.2383935,86 L87.86113,86 C87.3848877,86 87,85.6237409 87,85.1581752 L87,61.8418248 C87,61.3762591 87.3848877,61 87.86113,61 L95.2383935,61 C97.3904697,61 99.256501,61.2649918 100.779578,61.7876552 C102.311641,62.3161747 103.605582,63.002811 104.629952,63.8285313 C105.660313,64.6557156 106.4855,65.5927032 107.086045,66.605821 C107.665623,67.5925861 108.10143,68.5573905 108.376991,69.4738815 C108.652553,70.3830522 108.827774,71.2175568 108.898162,71.9554345 C108.96855,72.685992 109,73.1998712 109,73.5 Z M90.9462219,64.6601078 L90.9462219,82.3398922 L94.6663036,82.3398922 C96.1534377,82.3398922 97.5567052,82.1568869 98.8401634,81.7967323 C100.095167,81.4453619 101.195916,80.903666 102.112457,80.1877489 C103.014023,79.4806161 103.737372,78.5685172 104.261538,77.474877 C104.787202,76.3724526 105.055276,75.0357812 105.055276,73.5 C105.055276,71.9627547 104.787202,70.6260834 104.261538,69.526587 C103.73887,68.4329468 103.015521,67.5193839 102.112457,66.8151792 C101.195916,66.0977981 100.096664,65.5546381 98.8401634,65.2032677 C97.5507148,64.8431131 96.1474472,64.6601078 94.6663036,64.6601078 L90.9462219,64.6601078 Z" id="Combined-Shape"></path>
                <path d="M129,85.1581752 L129,83.181717 C129,82.7176154 128.610064,82.3398922 128.130957,82.3398922 L115.979463,82.3398922 L115.979463,74.9332982 L126.808499,74.9332982 C127.287607,74.9332982 127.677543,74.5555751 127.677543,74.0914734 L127.677543,72.1164793 C127.677543,71.6523776 127.287607,71.2746545 126.808499,71.2746545 L115.979463,71.2746545 L115.979463,64.6601078 L127.588371,64.6601078 C128.06899,64.6601078 128.457415,64.2823846 128.457415,63.818283 L128.457415,61.8403607 C128.457415,61.3762591 128.06899,61 127.588371,61 L112.869043,61 C112.389936,61 112,61.3762591 112,61.8403607 L112,85.1581752 C112,85.6222769 112.389936,86 112.869043,86 L128.130957,86 C128.610064,86 129,85.6222769 129,85.1581752" id="Fill-23"></path>
                <path d="M149.87917,84.7218904 C150.034982,84.98249 150.040862,85.3075076 149.892399,85.5724994 C149.740997,85.8360272 149.460241,86 149.155966,86 L146.671789,86 C146.374864,86 146.097048,85.8433474 145.945646,85.5871398 L139.611731,74.9347622 L136.868847,74.9347622 L136.868847,85.1596393 C136.868847,85.6237409 136.492546,86 136.025109,86 L133.845208,86 C133.377771,86 133,85.6237409 133,85.1596393 L133,61.8418248 C133,61.3777231 133.377771,61 133.845208,61 L139.993912,61 C140.314356,61 140.742105,61.0117123 141.284508,61.033673 C141.860719,61.0585617 142.476618,61.1302998 143.120446,61.2459592 C143.783383,61.3616186 144.468369,61.5534083 145.154825,61.8125439 C145.888318,62.0892481 146.558605,62.4991801 147.145106,63.0306278 C147.730137,63.5650035 148.216683,64.2399274 148.595924,65.040759 C148.976635,65.8518388 149.170665,66.8356758 149.170665,67.9673811 C149.170665,69.2249941 148.942826,70.2893535 148.494499,71.1297142 C148.054991,71.9554345 147.489069,72.6406067 146.809963,73.161806 C146.147026,73.6727571 145.407652,74.0563364 144.610952,74.3052237 C144.300797,74.4018506 143.993583,74.485301 143.693718,74.5585032 L149.87917,84.7218904 Z M140.656849,71.2761185 C141.691677,71.2761185 142.525126,71.1516749 143.135145,70.9071797 C143.734876,70.6700047 144.194963,70.3845163 144.506587,70.0565706 C144.806452,69.7388733 145.010772,69.4006793 145.116607,69.0478449 C145.238611,68.6393769 145.300348,68.2777583 145.300348,67.9673811 C145.300348,67.6599321 145.238611,67.2968494 145.116607,66.8883814 C145.010772,66.5340829 144.806452,66.197353 144.506587,65.8796557 C144.199373,65.5546381 143.737815,65.2676856 143.135145,65.0275826 C142.525126,64.7845514 141.690207,64.6601078 140.656849,64.6601078 L136.868847,64.6601078 L136.868847,71.2761185 L140.656849,71.2761185 Z" id="Combined-Shape"></path>
                <path d="M61,72.8845802 C61,71.001521 60.6728766,69.243119 59.9643605,67.5301804 C59.8663742,67.2911316 59.6598493,67.107812 59.405085,67.0344841 C59.1533356,66.9611563 58.8774666,67.0066195 58.6573743,67.1532752 L56.7820678,68.4438454 C56.4700192,68.6579628 56.3388683,69.0466004 56.4609743,69.4015072 C56.8393521,70.4955588 57.0308022,71.6673379 57.0308022,72.8845802 C57.0308022,74.2250134 56.8092024,75.4921187 56.3720329,76.6506987 C55.9393858,77.7946133 55.3137812,78.7977383 54.5118012,79.6351424 C53.7188661,80.4666802 52.7405108,81.1324971 51.6023626,81.6091282 C49.3170212,82.5711896 46.1286986,82.5711896 43.8463721,81.6091282 C42.8830917,81.205825 42.0147826,80.6470667 41.2700869,79.9489856 C40.9685906,79.6703397 40.5057939,79.6351424 40.1681182,79.8683249 L38.3651707,81.1075656 C38.1586458,81.2512882 38.02448,81.4742049 38.0033753,81.7220531 C37.980763,81.9713678 38.0727194,82.2133497 38.2506022,82.3893365 C39.4008103,83.5185855 40.7846779,84.407319 42.3599957,85.0306058 C43.9820454,85.6729578 45.7865004,86 47.7221061,86 C49.6592194,86 51.4636743,85.6729578 53.085724,85.0306058 C54.7153111,84.3853207 56.1323434,83.467256 57.2961188,82.29841 C58.4568793,81.1354302 59.3734279,79.7319351 60.0261672,78.1260551 C60.6728766,76.5289745 61,74.7661729 61,72.8845802" id="Fill-28"></path>
                <path d="M57.9966229,64.287768 C58.0192574,64.0399244 57.9272106,63.7950138 57.7476437,63.6190302 C56.6023395,62.5000675 55.2291816,61.6128167 53.6628761,60.9822087 C50.4004943,59.6725971 46.176902,59.6725971 42.9145202,60.9822087 C41.2833293,61.6406808 39.8679203,62.5631283 38.7060174,63.731953 C37.5456235,64.893445 36.628173,66.2895818 35.9763002,67.8837003 C35.3274454,69.46462 35,71.2244563 35,73.1104143 C35,74.9949057 35.3274454,76.7591417 36.027605,78.4647164 C36.1241787,78.7052274 36.3309069,78.8900102 36.585922,78.9662698 C36.6674061,78.9882678 36.7534171,79 36.8364101,79 C37.012959,79 37.1895079,78.9472049 37.3373864,78.8460143 L39.2205744,77.5510681 C39.5314212,77.3354881 39.6642101,76.9483241 39.5419839,76.5948903 C39.1647427,75.4964591 38.9715952,74.3232349 38.9715952,73.1104143 C38.9715952,71.7685391 39.194922,70.4999904 39.6325218,69.3443645 C40.0701216,68.1990043 40.693324,67.194431 41.4915664,66.3614418 C42.2882998,65.5269861 43.2691269,64.8626479 44.4099042,64.3830924 C46.6869321,63.4254482 49.8889553,63.4254482 52.172019,64.3830924 C53.1377564,64.7907879 54.0054111,65.3495359 54.7463128,66.0461378 C55.0465968,66.3277116 55.5128669,66.3614418 55.850875,66.1282635 L57.6344714,64.9037107 C57.8411996,64.7599907 57.9739885,64.5341451 57.9966229,64.287768" id="Fill-31"></path>
            </g>
        </g>
    </g>
</svg>