<?xml version="1.0" encoding="UTF-8"?>
<svg width="37px" height="101px" viewBox="0 0 37 101" version="1.1" xmlns="http://www.w3.org/2000/svg" xmlns:xlink="http://www.w3.org/1999/xlink">
    <!-- Generator: Sketch 53.2 (72643) - https://sketchapp.com -->
    <title>logo--black</title>
    <desc>Created with Sketch.</desc>
    <g id="Page-1" stroke="none" stroke-width="1" fill="none" fill-rule="evenodd">
        <g id="logo--black" fill="#283C64" fill-rule="nonzero">
            <path d="M30,27.3 L30,1.4 C30,0.9 29.6,0.5 29.1,0.5 C29.1,0.5 29.1,0.5 29,0.5 L26.6,0.5 C26.1,0.5 25.7,0.9 25.7,1.4 L25.7,21.2 L11.6,0.9 C11.4,0.6 11.1,0.5 10.8,0.5 L7.7,0.5 C7.2,0.5 6.8,0.9 6.8,1.4 L6.8,27.3 C6.8,27.8 7.2,28.2 7.7,28.2 L10.1,28.2 C10.6,28.2 11,27.8 11,27.3 L11,7.5 L25.2,27.8 C25.4,28.1 25.7,28.2 26,28.2 L29.1,28.2 C29.5,28.2 30,27.8 30,27.3 C30,27.3 30,27.3 30,27.3" id="Path"></path>
            <path d="M36.2,36.3 C36,36.1 35.7,35.9 35.4,35.9 L32.9,35.9 C32.5,35.9 32.1,36.2 32,36.6 L26.4,56.4 L20.7,36.5 C20.6,36.1 20.2,35.8 19.8,35.8 L16.7,35.8 C16.3,35.8 15.9,36.1 15.8,36.5 L10.1,56.4 L4.5,36.5 C4.4,36.1 4,35.8 3.6,35.8 L1.1,35.8 C0.6,35.8 0.2,36.2 0.2,36.7 C0.2,36.8 0.2,36.9 0.2,37 L7.7,62.9 C7.8,63.3 8.2,63.6 8.6,63.6 L11.6,63.6 C12,63.6 12.4,63.3 12.5,62.9 L18.2,42.9 L23.9,62.9 C24,63.3 24.4,63.6 24.8,63.6 L27.8,63.6 C28.2,63.6 28.6,63.3 28.7,62.9 L36.2,37 C36.5,36.8 36.4,36.5 36.2,36.3" id="Path"></path>
            <path d="M8.6,80.8 L6.6,79.4 C6.3,79.3 6,79.2 5.8,79.3 C5.5,79.4 5.3,79.6 5.2,79.9 C4.5,81.7 4.1,83.7 4.1,85.7 C4.1,87.7 4.4,89.7 5.1,91.5 C5.8,93.2 6.8,94.8 8.1,96.1 C9.4,97.4 10.9,98.4 12.6,99.1 C14.4,99.8 16.4,100.2 18.4,100.2 C20.4,100.2 22.3,99.9 24.2,99.1 C25.9,98.4 27.4,97.4 28.6,96.2 C29,95.8 29,95.2 28.6,94.9 C28.6,94.9 28.5,94.8 28.5,94.8 L26.6,93.4 C26.2,93.1 25.7,93.2 25.4,93.5 C24.6,94.3 23.6,94.9 22.6,95.3 C19.9,96.4 16.9,96.4 14.2,95.3 C13,94.8 11.9,94.1 11,93.2 C10.1,92.2 9.4,91.1 9,89.9 C8.1,87.3 8.1,84.5 8.9,81.9 C9,81.6 8.9,81.2 8.6,80.8" id="Path"></path>
            <path d="M32.7,85.8 C32.7,83.8 32.4,81.9 31.6,80 C30.9,78.3 29.9,76.7 28.7,75.4 C27.4,74.1 25.9,73.1 24.2,72.4 C20.5,71 16.3,71 12.6,72.4 C11,73 9.5,74 8.2,75.2 C8,75.4 7.9,75.7 7.9,75.9 C7.9,76.2 8.1,76.4 8.3,76.6 L10.2,77.9 C10.6,78.2 11.1,78.1 11.4,77.8 C12.2,77 13.2,76.4 14.2,76 C16.9,74.9 19.9,74.9 22.6,76 C23.8,76.5 24.9,77.2 25.7,78.2 C26.6,79.2 27.3,80.3 27.7,81.5 C28.6,84.1 28.6,86.9 27.8,89.5 C27.7,89.9 27.8,90.3 28.2,90.6 L30.2,92 C30.3,92.1 30.5,92.1 30.7,92.1 C30.8,92.1 31,92.1 31.1,92.1 C31.4,92 31.6,91.8 31.7,91.5 C32.3,89.7 32.7,87.8 32.7,85.8" id="Path"></path>
        </g>
    </g>
</svg>