<?xml version="1.0" encoding="UTF-8"?>
<svg width="101px" height="59px" viewBox="0 0 101 59" version="1.1" xmlns="http://www.w3.org/2000/svg" xmlns:xlink="http://www.w3.org/1999/xlink">
    <!-- Generator: Sketch 53.2 (72643) - https://sketchapp.com -->
    <title>Group</title>
    <desc>Created with Sketch.</desc>
    <g id="Page-1" stroke="none" stroke-width="1" fill="none" fill-rule="evenodd">
        <g id="Artboard-Copy" transform="translate(-118.000000, -100.000000)" fill="#283C64">
            <g id="Group" transform="translate(118.000000, 100.000000)">
                <path d="M14.2842854,16.5016 L14.2842854,0.5746 C14.2842854,0.2576 14.0262854,0.0006 13.7102854,0.0006 L12.2272854,0.0006 C11.9102854,0.0006 11.6522854,0.2576 11.6522854,0.5746 L11.6522854,12.7536 L2.95828539,0.2456 C2.85028539,0.0926 2.67528539,0.0006 2.48628539,0.0006 L0.574285388,0.0006 C0.258285388,0.0006 0.000285387534,0.2576 0.000285387534,0.5746 L0.000285387534,16.5016 C0.000285387534,16.8186 0.258285388,17.0766 0.574285388,17.0766 L2.05728539,17.0766 C2.37528539,17.0766 2.63328539,16.8186 2.63328539,16.5016 L2.63328539,4.3226 L11.3272854,16.8306 C11.4342854,16.9846 11.6102854,17.0766 11.8002854,17.0766 L13.7102854,17.0766 C14.0262854,17.0766 14.2842854,16.8186 14.2842854,16.5016" id="Fill-1"></path>
                <path d="M28.7490854,16.5016 L28.7490854,15.1516 C28.7490854,14.8346 28.4910854,14.5766 28.1740854,14.5766 L20.1340854,14.5766 L20.1340854,9.5176 L27.2980854,9.5176 C27.6150854,9.5176 27.8730854,9.2606 27.8730854,8.9426 L27.8730854,7.5936 C27.8730854,7.2766 27.6150854,7.0186 27.2980854,7.0186 L20.1340854,7.0186 L20.1340854,2.5006 L27.8140854,2.5006 C28.1320854,2.5006 28.3900854,2.2426 28.3900854,1.9256 L28.3900854,0.5746 C28.3900854,0.2576 28.1320854,0.0006 27.8140854,0.0006 L18.0750854,0.0006 C17.7590854,0.0006 17.5010854,0.2576 17.5010854,0.5746 L17.5010854,16.5016 C17.5010854,16.8186 17.7590854,17.0766 18.0750854,17.0766 L28.1740854,17.0766 C28.4910854,17.0766 28.7490854,16.8186 28.7490854,16.5016" id="Fill-3"></path>
                <path d="M52.2559854,0.736 C52.3069854,0.562 52.2729854,0.374 52.1639854,0.23 C52.0549854,0.085 51.8839854,1.42108547e-14 51.7029854,1.42108547e-14 L50.1739854,1.42108547e-14 C49.9159854,1.42108547e-14 49.6899854,0.172 49.6189854,0.42 L46.1879854,12.65 L42.6969854,0.418 C42.6279854,0.171 42.4019854,1.42108547e-14 42.1449854,1.42108547e-14 L40.2549854,1.42108547e-14 C39.9979854,1.42108547e-14 39.7719854,0.171 39.7019854,0.418 L36.2099854,12.646 L32.7769854,0.42 C32.7069854,0.172 32.4809854,1.42108547e-14 32.2229854,1.42108547e-14 L30.6939854,1.42108547e-14 C30.5129854,1.42108547e-14 30.3429854,0.085 30.2339854,0.23 C30.1249854,0.374 30.0909854,0.562 30.1409854,0.736 L34.7769854,16.663 C34.8489854,16.907 35.0739854,17.076 35.3289854,17.076 L37.1509854,17.076 C37.4079854,17.076 37.6329854,16.906 37.7039854,16.659 L41.1989854,4.357 L44.6949854,16.659 C44.7669854,16.906 44.9909854,17.076 45.2489854,17.076 L47.0699854,17.076 C47.3259854,17.076 47.5509854,16.907 47.6229854,16.663 L52.2559854,0.736 Z" id="Fill-5"></path>
                <path d="M22.1387854,20.7626 C22.1897854,20.5886 22.1557854,20.4006 22.0467854,20.2566 C21.9377854,20.1116 21.7667854,20.0266 21.5857854,20.0266 L20.0557854,20.0266 C19.7987854,20.0266 19.5727854,20.1986 19.5017854,20.4466 L16.0707854,32.6766 L12.5797854,20.4446 C12.5107854,20.1966 12.2847854,20.0266 12.0277854,20.0266 L10.1367854,20.0266 C9.87978539,20.0266 9.65378539,20.1966 9.58278539,20.4446 L6.09178539,32.6726 L2.65978539,20.4466 C2.58878539,20.1986 2.36378539,20.0266 2.10578539,20.0266 L0.575785388,20.0266 C0.394785388,20.0266 0.224785388,20.1116 0.114785388,20.2566 C0.00578538753,20.4006 -0.0272146125,20.5886 0.0227853875,20.7626 L4.65878539,36.6896 C4.73078539,36.9336 4.95478539,37.1026 5.21078539,37.1026 L7.03378539,37.1026 C7.29078539,37.1026 7.51578539,36.9326 7.58678539,36.6856 L11.0817854,24.3836 L14.5767854,36.6856 C14.6477854,36.9326 14.8727854,37.1026 15.1307854,37.1026 L16.9517854,37.1026 C17.2067854,37.1026 17.4327854,36.9336 17.5047854,36.6896 L22.1387854,20.7626 Z" id="Fill-8"></path>
                <path d="M54.4482854,36.2297 C54.5552854,36.4077 54.5582854,36.6297 54.4572854,36.8107 C54.3542854,36.9907 54.1632854,37.1027 53.9562854,37.1027 L52.2682854,37.1027 C52.0652854,37.1027 51.8772854,36.9957 51.7742854,36.8207 L47.4632854,29.5447 L45.5982854,29.5447 L45.5982854,36.5287 C45.5982854,36.8457 45.3412854,37.1027 45.0232854,37.1027 L43.5412854,37.1027 C43.2242854,37.1027 42.9672854,36.8457 42.9672854,36.5287 L42.9672854,20.6017 C42.9672854,20.2847 43.2242854,20.0267 43.5412854,20.0267 L47.7242854,20.0267 C47.9412854,20.0267 48.2322854,20.0347 48.6022854,20.0497 C48.9932854,20.0667 49.4132854,20.1157 49.8512854,20.1947 C50.3022854,20.2737 50.7662854,20.4047 51.2342854,20.5817 C51.7352854,20.7707 52.1902854,21.0507 52.5882854,21.4137 C52.9882854,21.7797 53.3202854,22.2407 53.5772854,22.7867 C53.8362854,23.3387 53.9672854,24.0117 53.9672854,24.7857 C53.9672854,25.6447 53.8112854,26.3717 53.5062854,26.9457 C53.2102854,27.5077 52.8232854,27.9747 52.3602854,28.3337 C51.9132854,28.6817 51.4092854,28.9437 50.8652854,29.1147 C50.6512854,29.1807 50.4432854,29.2387 50.2402854,29.2877 L54.4482854,36.2297 Z M48.1742854,27.0457 C48.8802854,27.0457 49.4462854,26.9607 49.8602854,26.7937 C50.2672854,26.6327 50.5812854,26.4367 50.7932854,26.2127 C51.0012854,25.9947 51.1352854,25.7687 51.2102854,25.5227 C51.2922854,25.2427 51.3342854,24.9947 51.3342854,24.7857 C51.3342854,24.5797 51.2922854,24.3307 51.2092854,24.0467 C51.1352854,23.8027 51.0012854,23.5777 50.7932854,23.3607 C50.5832854,23.1377 50.2692854,22.9417 49.8602854,22.7777 C49.4462854,22.6117 48.8792854,22.5267 48.1742854,22.5267 L45.5982854,22.5267 L45.5982854,27.0457 L48.1742854,27.0457 Z" id="Combined-Shape"></path>
                <path d="M72.1406854,28.5649 C72.1406854,28.7709 72.1196854,29.1219 72.0716854,29.6199 C72.0236854,30.1289 71.9106854,30.6839 71.7236854,31.3159 C71.5416854,31.9369 71.2506854,32.5959 70.8616854,33.2729 C70.4626854,33.9639 69.9116854,34.6029 69.2226854,35.1719 C68.5366854,35.7369 67.6716854,36.2049 66.6516854,36.5649 C65.6326854,36.9219 64.3876854,37.1029 62.9516854,37.1029 L58.0256854,37.1029 C57.7076854,37.1029 57.4506854,36.8459 57.4506854,36.5279 L57.4506854,20.6019 C57.4506854,20.2839 57.7076854,20.0269 58.0256854,20.0269 L62.9516854,20.0269 C64.3876854,20.0269 65.6326854,20.2079 66.6506854,20.5659 C67.6726854,20.9249 68.5376854,21.3929 69.2226854,21.9579 C69.9106854,22.5239 70.4606854,23.1639 70.8606854,23.8559 C71.2506854,24.5349 71.5416854,25.1939 71.7236854,25.8159 C71.9066854,26.4359 72.0246854,27.0059 72.0716854,27.5099 C72.1196854,28.0079 72.1406854,28.3599 72.1406854,28.5649 Z M68.9746854,31.2799 C69.3276854,30.5279 69.5056854,29.6149 69.5056854,28.5649 C69.5056854,27.5149 69.3276854,26.6019 68.9746854,25.8509 C68.6266854,25.1039 68.1436854,24.4799 67.5406854,23.9989 C66.9286854,23.5089 66.1946854,23.1379 65.3566854,22.8979 C64.4946854,22.6519 63.5576854,22.5269 62.5696854,22.5269 L60.0846854,22.5269 L60.0846854,34.6029 L62.5696854,34.6029 C63.5606854,34.6029 64.4976854,34.4779 65.3566854,34.2319 C66.1946854,33.9919 66.9286854,33.6209 67.5406854,33.1329 C68.1426854,32.6499 68.6246854,32.0269 68.9746854,31.2799 Z" id="Combined-Shape"></path>
                <path d="M38.8467854,34.9679 C38.8327854,34.7989 38.7437854,34.6459 38.6067854,34.5479 L37.4117854,33.7039 C37.1867854,33.5439 36.8807854,33.5689 36.6817854,33.7589 C36.1867854,34.2349 35.6127854,34.6159 34.9707854,34.8919 C33.4577854,35.5459 31.3437854,35.5459 29.8267854,34.8919 C29.0717854,34.5659 28.4217854,34.1119 27.8947854,33.5439 C27.3637854,32.9719 26.9497854,32.2879 26.6627854,31.5089 C26.3727854,30.7209 26.2247854,29.8569 26.2247854,28.9419 C26.2247854,28.1149 26.3517854,27.3149 26.6027854,26.5649 C26.6837854,26.3249 26.5957854,26.0599 26.3897854,25.9129 L25.1457854,25.0339 C24.9997854,24.9329 24.7977854,24.9429 24.6297854,24.9949 C24.4607854,25.0459 24.3057854,25.2139 24.2407854,25.3779 C23.8097854,26.4559 23.5927854,27.6559 23.5927854,28.9419 C23.5927854,30.2269 23.8097854,31.4299 24.2397854,32.5159 C24.6717854,33.6089 25.2807854,34.5669 26.0487854,35.3599 C26.8197854,36.1559 27.7597854,36.7819 28.8417854,37.2229 C29.9177854,37.6619 31.1157854,37.8849 32.3997854,37.8849 C33.6837854,37.8849 34.8807854,37.6619 35.9567854,37.2229 C37.0037854,36.7979 37.9217854,36.1909 38.6837854,35.4229 C38.8027854,35.3029 38.8627854,35.1359 38.8467854,34.9679" id="Fill-15"></path>
                <path d="M41.2070854,28.9416 C41.2070854,27.6566 40.9890854,26.4576 40.5590854,25.3776 C40.1260854,24.2886 39.5180854,23.3376 38.7500854,22.5466 C37.9790854,21.7506 37.0410854,21.1206 35.9610854,20.6716 C33.7990854,19.7786 31.0000854,19.7786 28.8380854,20.6716 C27.8030854,21.1016 26.8920854,21.7056 26.1320854,22.4696 C26.0120854,22.5896 25.9510854,22.7566 25.9650854,22.9246 C25.9790854,23.0936 26.0680854,23.2476 26.2060854,23.3456 L27.3880854,24.1806 C27.6130854,24.3396 27.9190854,24.3166 28.1180854,24.1246 C28.6130854,23.6486 29.1870854,23.2676 29.8260854,22.9906 C31.3430854,22.3376 33.4630854,22.3396 34.9710854,22.9906 C35.7250854,23.3166 36.3760854,23.7716 36.9040854,24.3396 C37.4310854,24.9056 37.8460854,25.5896 38.1370854,26.3726 C38.4270854,27.1636 38.5740854,28.0276 38.5740854,28.9416 C38.5740854,29.7716 38.4460854,30.5706 38.1960854,31.3166 C38.1150854,31.5586 38.2020854,31.8226 38.4090854,31.9696 L39.6580854,32.8526 C39.7380854,32.9086 39.8370854,32.9316 39.9360854,32.9316 C40.0150854,32.9316 40.0970854,32.9166 40.1710854,32.8946 C40.3410854,32.8446 40.4940854,32.6806 40.5600854,32.5156 C40.9890854,31.4276 41.2070854,30.2256 41.2070854,28.9416" id="Fill-17"></path>
                <path d="M55.3184854,57.4142 C55.4244854,57.5922 55.4284854,57.8142 55.3274854,57.9952 C55.2244854,58.1752 55.0334854,58.2872 54.8264854,58.2872 L53.1384854,58.2872 C52.9354854,58.2872 52.7474854,58.1802 52.6444854,58.0052 L48.3334854,50.7292 L46.4684854,50.7292 L46.4684854,57.7132 C46.4684854,58.0302 46.2114854,58.2872 45.8934854,58.2872 L44.4114854,58.2872 C44.0944854,58.2872 43.8374854,58.0302 43.8374854,57.7132 L43.8374854,41.7862 C43.8374854,41.4692 44.0944854,41.2112 44.4114854,41.2112 L48.5934854,41.2112 C48.8114854,41.2112 49.1024854,41.2192 49.4724854,41.2342 C49.8634854,41.2512 50.2834854,41.3002 50.7214854,41.3792 C51.1714854,41.4582 51.6374854,41.5892 52.1044854,41.7662 C52.6024854,41.9542 53.0574854,42.2342 53.4584854,42.5982 C53.8554854,42.9612 54.1874854,43.4232 54.4454854,43.9702 C54.7064854,44.5232 54.8364854,45.1952 54.8364854,45.9702 C54.8364854,46.8292 54.6814854,47.5562 54.3764854,48.1302 C54.0774854,48.6942 53.6924854,49.1622 53.2304854,49.5182 C52.7834854,49.8662 52.2794854,50.1282 51.7354854,50.2992 C51.5214854,50.3652 51.3134854,50.4232 51.1104854,50.4722 L55.3184854,57.4142 Z M49.0444854,48.2302 C49.7494854,48.2302 50.3154854,48.1452 50.7304854,47.9782 C51.1374854,47.8172 51.4514854,47.6212 51.6634854,47.3972 C51.8714854,47.1792 52.0054854,46.9532 52.0804854,46.7072 C52.1624854,46.4272 52.2044854,46.1792 52.2044854,45.9702 C52.2044854,45.7642 52.1624854,45.5152 52.0784854,45.2312 C52.0054854,44.9872 51.8714854,44.7622 51.6634854,44.5452 C51.4534854,44.3222 51.1394854,44.1262 50.7304854,43.9622 C50.3154854,43.7962 49.7474854,43.7112 49.0444854,43.7112 L46.4684854,43.7112 L46.4684854,48.2302 L49.0444854,48.2302 Z" id="Combined-Shape"></path>
                <path d="M73.0117854,49.7494 C73.0117854,49.9554 72.9907854,50.3054 72.9437854,50.8034 C72.8957854,51.3134 72.7827854,51.8684 72.5957854,52.5004 C72.4097854,53.1264 72.1207854,53.7844 71.7347854,54.4574 C71.3347854,55.1494 70.7837854,55.7884 70.0937854,56.3574 C69.4087854,56.9204 68.5447854,57.3894 67.5237854,57.7494 C66.5057854,58.1064 65.2597854,58.2874 63.8227854,58.2874 L58.8967854,58.2874 C58.5787854,58.2874 58.3217854,58.0304 58.3217854,57.7124 L58.3217854,41.7864 C58.3217854,41.4684 58.5787854,41.2114 58.8967854,41.2114 L63.8227854,41.2114 C65.2597854,41.2114 66.5057854,41.3924 67.5227854,41.7494 C68.5457854,42.1104 69.4097854,42.5794 70.0937854,43.1434 C70.7817854,43.7084 71.3327854,44.3484 71.7337854,45.0404 C72.1207854,45.7144 72.4117854,46.3734 72.5957854,46.9994 C72.7797854,47.6204 72.8967854,48.1904 72.9437854,48.6944 C72.9907854,49.1934 73.0117854,49.5444 73.0117854,49.7494 Z M60.9567854,43.7114 L60.9567854,55.7874 L63.4407854,55.7874 C64.4337854,55.7874 65.3707854,55.6624 66.2277854,55.4164 C67.0657854,55.1764 67.8007854,54.8064 68.4127854,54.3174 C69.0147854,53.8344 69.4977854,53.2114 69.8477854,52.4644 C70.1987854,51.7114 70.3777854,50.7984 70.3777854,49.7494 C70.3777854,48.6994 70.1987854,47.7864 69.8477854,47.0354 C69.4987854,46.2884 69.0157854,45.6644 68.4127854,45.1834 C67.8007854,44.6934 67.0667854,44.3224 66.2277854,44.0824 C65.3667854,43.8364 64.4297854,43.7114 63.4407854,43.7114 L60.9567854,43.7114 Z" id="Combined-Shape"></path>
                <path d="M86.8896854,57.7128 L86.8896854,56.3628 C86.8896854,56.0458 86.6316854,55.7878 86.3146854,55.7878 L78.2746854,55.7878 L78.2746854,50.7288 L85.4396854,50.7288 C85.7566854,50.7288 86.0146854,50.4708 86.0146854,50.1538 L86.0146854,48.8048 C86.0146854,48.4878 85.7566854,48.2298 85.4396854,48.2298 L78.2746854,48.2298 L78.2746854,43.7118 L85.9556854,43.7118 C86.2736854,43.7118 86.5306854,43.4538 86.5306854,43.1368 L86.5306854,41.7858 C86.5306854,41.4688 86.2736854,41.2118 85.9556854,41.2118 L76.2166854,41.2118 C75.8996854,41.2118 75.6416854,41.4688 75.6416854,41.7858 L75.6416854,57.7128 C75.6416854,58.0298 75.8996854,58.2878 76.2166854,58.2878 L86.3146854,58.2878 C86.6316854,58.2878 86.8896854,58.0298 86.8896854,57.7128" id="Fill-23"></path>
                <path d="M100.915085,57.4142 C101.021085,57.5922 101.025085,57.8142 100.924085,57.9952 C100.821085,58.1752 100.630085,58.2872 100.423085,58.2872 L98.7330854,58.2872 C98.5310854,58.2872 98.3420854,58.1802 98.2390854,58.0052 L93.9300854,50.7292 L92.0640854,50.7292 L92.0640854,57.7132 C92.0640854,58.0302 91.8080854,58.2872 91.4900854,58.2872 L90.0070854,58.2872 C89.6890854,58.2872 89.4320854,58.0302 89.4320854,57.7132 L89.4320854,41.7862 C89.4320854,41.4692 89.6890854,41.2112 90.0070854,41.2112 L94.1900854,41.2112 C94.4080854,41.2112 94.6990854,41.2192 95.0680854,41.2342 C95.4600854,41.2512 95.8790854,41.3002 96.3170854,41.3792 C96.7680854,41.4582 97.2340854,41.5892 97.7010854,41.7662 C98.2000854,41.9552 98.6560854,42.2352 99.0550854,42.5982 C99.4530854,42.9632 99.7840854,43.4242 100.042085,43.9712 C100.301085,44.5252 100.433085,45.1972 100.433085,45.9702 C100.433085,46.8292 100.278085,47.5562 99.9730854,48.1302 C99.6740854,48.6942 99.2890854,49.1622 98.8270854,49.5182 C98.3760854,49.8672 97.8730854,50.1292 97.3310854,50.2992 C97.1200854,50.3652 96.9110854,50.4222 96.7070854,50.4722 L100.915085,57.4142 Z M94.6410854,48.2302 C95.3450854,48.2302 95.9120854,48.1452 96.3270854,47.9782 C96.7350854,47.8162 97.0480854,47.6212 97.2600854,47.3972 C97.4640854,47.1802 97.6030854,46.9492 97.6750854,46.7082 C97.7580854,46.4292 97.8000854,46.1822 97.8000854,45.9702 C97.8000854,45.7602 97.7580854,45.5122 97.6750854,45.2332 C97.6030854,44.9912 97.4640854,44.7612 97.2600854,44.5442 C97.0510854,44.3222 96.7370854,44.1262 96.3270854,43.9622 C95.9120854,43.7962 95.3440854,43.7112 94.6410854,43.7112 L92.0640854,43.7112 L92.0640854,48.2302 L94.6410854,48.2302 Z" id="Combined-Shape"></path>
                <path d="M41.2070854,49.7494 C41.2070854,48.4654 40.9900854,47.2664 40.5200854,46.0984 C40.4550854,45.9354 40.3180854,45.8104 40.1490854,45.7604 C39.9820854,45.7104 39.7990854,45.7414 39.6530854,45.8414 L38.4090854,46.7214 C38.2020854,46.8674 38.1150854,47.1324 38.1960854,47.3744 C38.4470854,48.1204 38.5740854,48.9194 38.5740854,49.7494 C38.5740854,50.6634 38.4270854,51.5274 38.1370854,52.3174 C37.8500854,53.0974 37.4350854,53.7814 36.9030854,54.3524 C36.3770854,54.9194 35.7280854,55.3734 34.9730854,55.6984 C33.4570854,56.3544 31.3420854,56.3544 29.8280854,55.6984 C29.1890854,55.4234 28.6130854,55.0424 28.1190854,54.5664 C27.9190854,54.3764 27.6120854,54.3524 27.3880854,54.5114 L26.1920854,55.3564 C26.0550854,55.4544 25.9660854,55.6064 25.9520854,55.7754 C25.9370854,55.9454 25.9980854,56.1104 26.1160854,56.2304 C26.8790854,57.0004 27.7970854,57.6064 28.8420854,58.0314 C29.9180854,58.4694 31.1150854,58.6924 32.3990854,58.6924 C33.6840854,58.6924 34.8810854,58.4694 35.9570854,58.0314 C37.0380854,57.5914 37.9780854,56.9654 38.7500854,56.1684 C39.5200854,55.3754 40.1280854,54.4184 40.5610854,53.3234 C40.9900854,52.2344 41.2070854,51.0324 41.2070854,49.7494" id="Fill-28"></path>
                <path d="M38.8330854,43.7336 C38.8480854,43.5646 38.7870854,43.3976 38.6680854,43.2776 C37.9090854,42.5146 36.9990854,41.9096 35.9610854,41.4796 C33.7990854,40.5866 31.0000854,40.5866 28.8380854,41.4796 C27.7570854,41.9286 26.8190854,42.5576 26.0490854,43.3546 C25.2800854,44.1466 24.6720854,45.0986 24.2400854,46.1856 C23.8100854,47.2636 23.5930854,48.4636 23.5930854,49.7496 C23.5930854,51.0346 23.8100854,52.2376 24.2740854,53.4006 C24.3380854,53.5646 24.4750854,53.6906 24.6440854,53.7426 C24.6980854,53.7576 24.7550854,53.7656 24.8100854,53.7656 C24.9270854,53.7656 25.0440854,53.7296 25.1420854,53.6606 L26.3900854,52.7776 C26.5960854,52.6306 26.6840854,52.3666 26.6030854,52.1256 C26.3530854,51.3766 26.2250854,50.5766 26.2250854,49.7496 C26.2250854,48.8346 26.3730854,47.9696 26.6630854,47.1816 C26.9530854,46.4006 27.3660854,45.7156 27.8950854,45.1476 C28.4230854,44.5786 29.0730854,44.1256 29.8290854,43.7986 C31.3380854,43.1456 33.4600854,43.1456 34.9730854,43.7986 C35.6130854,44.0766 36.1880854,44.4576 36.6790854,44.9326 C36.8780854,45.1246 37.1870854,45.1476 37.4110854,44.9886 L38.5930854,44.1536 C38.7300854,44.0556 38.8180854,43.9016 38.8330854,43.7336" id="Fill-31"></path>
            </g>
        </g>
    </g>
</svg>