<?xml version="1.0" encoding="utf-8"?>
<!-- Generator: Adobe Illustrator 19.0.0, SVG Export Plug-In . SVG Version: 6.00 Build 0)  -->
<svg version="1.1" id="Layer_1" xmlns="http://www.w3.org/2000/svg" xmlns:xlink="http://www.w3.org/1999/xlink" x="0px" y="0px"
	 viewBox="-402 248.3 36 100" style="enable-background:new -402 248.3 36 100;" xml:space="preserve">
<style type="text/css">
	.st0{fill:#2E3B42;}
	.st1{fill:#79CDCD;}
</style>
<title>Artboard 12</title>
<path class="st0" d="M-372,275.3v-25.9c0-0.5-0.4-0.9-0.9-0.9c0,0,0,0-0.1,0h-2.4c-0.5,0-0.9,0.4-0.9,0.9v19.8l-14.1-20.3
	c-0.2-0.3-0.5-0.4-0.8-0.4h-3.1c-0.5,0-0.9,0.4-0.9,0.9v25.9c0,0.5,0.4,0.9,0.9,0.9h2.4c0.5,0,0.9-0.4,0.9-0.9v-19.8l14.2,20.3
	c0.2,0.3,0.5,0.4,0.8,0.4h3.1C-372.5,276.2-372,275.8-372,275.3C-372,275.3-372,275.3-372,275.3"/>
<path class="st0" d="M-365.8,284.3c-0.2-0.2-0.5-0.4-0.8-0.4h-2.5c-0.4,0-0.8,0.3-0.9,0.7l-5.6,19.8l-5.7-19.9
	c-0.1-0.4-0.5-0.7-0.9-0.7h-3.1c-0.4,0-0.8,0.3-0.9,0.7l-5.7,19.9l-5.6-19.9c-0.1-0.4-0.5-0.7-0.9-0.7h-2.5c-0.5,0-0.9,0.4-0.9,0.9
	c0,0.1,0,0.2,0,0.3l7.5,25.9c0.1,0.4,0.5,0.7,0.9,0.7h3c0.4,0,0.8-0.3,0.9-0.7l5.7-20l5.7,20c0.1,0.4,0.5,0.7,0.9,0.7h3
	c0.4,0,0.8-0.3,0.9-0.7l7.5-25.9C-365.5,284.8-365.6,284.5-365.8,284.3"/>
<path class="st0" d="M-393.4,328.8l-2-1.4c-0.3-0.1-0.6-0.2-0.8-0.1c-0.3,0.1-0.5,0.3-0.6,0.6c-0.7,1.8-1.1,3.8-1.1,5.8
	c0,2,0.3,4,1,5.8c0.7,1.7,1.7,3.3,3,4.6c1.3,1.3,2.8,2.3,4.5,3c1.8,0.7,3.8,1.1,5.8,1.1c2,0,3.9-0.3,5.8-1.1
	c1.7-0.7,3.2-1.7,4.4-2.9c0.4-0.4,0.4-1,0-1.3c0,0-0.1-0.1-0.1-0.1l-1.9-1.4c-0.4-0.3-0.9-0.2-1.2,0.1c-0.8,0.8-1.8,1.4-2.8,1.8
	c-2.7,1.1-5.7,1.1-8.4,0c-1.2-0.5-2.3-1.2-3.2-2.1c-0.9-1-1.6-2.1-2-3.3c-0.9-2.6-0.9-5.4-0.1-8C-393,329.6-393.1,329.2-393.4,328.8
	"/>
<path class="st1" d="M-369.3,333.8c0-2-0.3-3.9-1.1-5.8c-0.7-1.7-1.7-3.3-2.9-4.6c-1.3-1.3-2.8-2.3-4.5-3c-3.7-1.4-7.9-1.4-11.6,0
	c-1.6,0.6-3.1,1.6-4.4,2.8c-0.2,0.2-0.3,0.5-0.3,0.7c0,0.3,0.2,0.5,0.4,0.7l1.9,1.3c0.4,0.3,0.9,0.2,1.2-0.1
	c0.8-0.8,1.8-1.4,2.8-1.8c2.7-1.1,5.7-1.1,8.4,0c1.2,0.5,2.3,1.2,3.1,2.2c0.9,1,1.6,2.1,2,3.3c0.9,2.6,0.9,5.4,0.1,8
	c-0.1,0.4,0,0.8,0.4,1.1l2,1.4c0.1,0.1,0.3,0.1,0.5,0.1c0.1,0,0.3,0,0.4,0c0.3-0.1,0.5-0.3,0.6-0.6
	C-369.7,337.7-369.3,335.8-369.3,333.8"/>
</svg>
