<?xml version="1.0" encoding="UTF-8"?>
<svg width="300px" height="26px" viewBox="0 0 300 26" version="1.1" xmlns="http://www.w3.org/2000/svg" xmlns:xlink="http://www.w3.org/1999/xlink">
    <!-- Generator: Sketch 53.2 (72643) - https://sketchapp.com -->
    <title>nwo-horizontal-rgb</title>
    <desc>Created with Sketch.</desc>
    <g id="Page-1" stroke="none" stroke-width="1" fill="none" fill-rule="evenodd">
        <g id="nwo-horizontal-rgb" fill="#283C64" fill-rule="nonzero">
            <path d="M20.3441296,24.0789474 L20.3441296,1.548583 C20.3441296,1.09311741 19.9797571,0.728744939 19.5242915,0.728744939 L17.4291498,0.728744939 C16.9736842,0.728744939 16.6093117,1.09311741 16.6093117,1.548583 L16.6093117,18.7651822 L4.34210526,1.09311741 C4.1902834,0.880566802 3.94736842,0.759109312 3.67408907,0.759109312 L0.971659919,0.759109312 C0.516194332,0.759109312 0.151821862,1.12348178 0.151821862,1.57894737 L0.151821862,24.1093117 C0.151821862,24.5647773 0.516194332,24.9291498 0.971659919,24.9291498 L3.06680162,24.9291498 C3.52226721,24.9291498 3.88663968,24.5647773 3.88663968,24.1093117 L3.88663968,6.86234818 L16.1842105,24.5647773 C16.3360324,24.7773279 16.5789474,24.8987854 16.8522267,24.8987854 L19.5546559,24.8987854 C19.9797571,24.8987854 20.3441296,24.534413 20.3441296,24.0789474" id="Path"></path>
            <path d="M40.8097166,24.0789474 L40.8097166,22.1659919 C40.8097166,21.7105263 40.4453441,21.3461538 39.9898785,21.3461538 L28.6336032,21.3461538 L28.6336032,14.2105263 L38.7753036,14.2105263 C39.2307692,14.2105263 39.5951417,13.8461538 39.5951417,13.3906883 L39.5951417,11.4777328 C39.5951417,11.0222672 39.2307692,10.6578947 38.7753036,10.6578947 L28.6336032,10.6578947 L28.6336032,4.28137652 L39.5040486,4.28137652 C39.9595142,4.28137652 40.3238866,3.91700405 40.3238866,3.46153846 L40.3238866,1.548583 C40.3238866,1.09311741 39.9595142,0.728744939 39.5040486,0.728744939 L25.7186235,0.728744939 C25.2631579,0.728744939 24.8987854,1.09311741 24.8987854,1.548583 L24.8987854,24.0789474 C24.8987854,24.534413 25.2631579,24.8987854 25.7186235,24.8987854 L39.9898785,24.8987854 C40.4453441,24.8987854 40.8097166,24.534413 40.8097166,24.0789474" id="Path"></path>
            <path d="M74.0587045,1.79149798 C74.1194332,1.548583 74.0890688,1.27530364 73.937247,1.06275304 C73.7854251,0.850202429 73.5425101,0.728744939 73.2995951,0.728744939 L71.1437247,0.728744939 C70.7793522,0.728744939 70.4453441,0.971659919 70.354251,1.33603239 L65.4959514,18.6437247 L60.5465587,1.33603239 C60.4554656,1.00202429 60.1214575,0.759109312 59.757085,0.759109312 L57.0850202,0.759109312 C56.7206478,0.759109312 56.3866397,1.00202429 56.2955466,1.33603239 L51.3461538,18.6437247 L46.4878543,1.36639676 C46.3967611,1.00202429 46.062753,0.759109312 45.6983806,0.759109312 L43.5425101,0.759109312 C43.2995951,0.759109312 43.0566802,0.880566802 42.9048583,1.09311741 C42.7530364,1.30566802 42.6923077,1.57894737 42.7834008,1.82186235 L49.3421053,24.3522267 C49.4331984,24.6862348 49.7672065,24.9291498 50.1315789,24.9291498 L52.7125506,24.9291498 C53.0769231,24.9291498 53.3805668,24.6862348 53.5020243,24.3218623 L58.451417,6.92307692 L63.3704453,24.291498 C63.4615385,24.6558704 63.7955466,24.8987854 64.159919,24.8987854 L66.7408907,24.8987854 C67.1052632,24.8987854 67.4089069,24.6558704 67.5303644,24.3218623 L74.0587045,1.79149798 Z" id="Path"></path>
            <path d="M113.623482,1.79149798 C113.684211,1.548583 113.653846,1.27530364 113.502024,1.06275304 C113.350202,0.850202429 113.107287,0.728744939 112.864372,0.728744939 L110.708502,0.728744939 C110.34413,0.728744939 110.010121,0.971659919 109.919028,1.33603239 L105.060729,18.6437247 L100.111336,1.33603239 C100.020243,1.00202429 99.6862348,0.759109312 99.3218623,0.759109312 L96.6497976,0.759109312 C96.2854251,0.759109312 95.951417,1.00202429 95.8603239,1.33603239 L90.9109312,18.6437247 L86.0526316,1.36639676 C85.9615385,1.00202429 85.6275304,0.759109312 85.2631579,0.759109312 L83.1072874,0.759109312 C82.8643725,0.759109312 82.6214575,0.880566802 82.4696356,1.09311741 C82.3178138,1.30566802 82.257085,1.57894737 82.3481781,1.82186235 L88.9068826,24.3522267 C88.9979757,24.6862348 89.3319838,24.9291498 89.6963563,24.9291498 L92.2773279,24.9291498 C92.6417004,24.9291498 92.9757085,24.6862348 93.0668016,24.3218623 L98.0161943,6.92307692 L102.935223,24.291498 C103.026316,24.6558704 103.360324,24.8987854 103.724696,24.8987854 L106.305668,24.8987854 C106.67004,24.8987854 106.973684,24.6558704 107.095142,24.3218623 L113.623482,1.79149798 Z" id="Path"></path>
            <path d="M150.455466,10.6578947 L146.811741,10.6578947 L146.811741,4.28137652 L150.455466,4.28137652 C151.45749,4.28137652 152.246964,4.40283401 152.854251,4.64574899 C153.431174,4.88866397 153.88664,5.16194332 154.159919,5.46558704 C154.463563,5.76923077 154.645749,6.10323887 154.736842,6.43724696 C154.8583,6.83198381 154.919028,7.19635628 154.919028,7.46963563 C154.919028,7.77327935 154.8583,8.10728745 154.736842,8.50202429 C154.645749,8.83603239 154.433198,9.17004049 154.159919,9.47368421 C153.856275,9.77732794 153.431174,10.0809717 152.854251,10.2935223 C152.246964,10.5668016 151.45749,10.6578947 150.455466,10.6578947 M159.321862,23.6538462 L153.370445,13.8461538 C153.643725,13.7854251 153.947368,13.694332 154.251012,13.6032389 C155.010121,13.3603239 155.738866,12.9959514 156.376518,12.5101215 C157.044534,11.9939271 157.560729,11.3259109 157.98583,10.5364372 C158.410931,9.71659919 158.623482,8.68421053 158.623482,7.46963563 C158.623482,6.37651822 158.441296,5.43522267 158.076923,4.64574899 C157.712551,3.88663968 157.257085,3.21862348 156.680162,2.70242915 C156.133603,2.18623482 155.465587,1.79149798 154.767206,1.51821862 C154.09919,1.27530364 153.461538,1.09311741 152.823887,0.971659919 C152.216599,0.850202429 151.609312,0.789473684 151.062753,0.759109312 C150.546559,0.728744939 150.121457,0.728744939 149.817814,0.728744939 L143.896761,0.728744939 C143.441296,0.728744939 143.076923,1.09311741 143.076923,1.548583 L143.076923,24.0789474 C143.076923,24.534413 143.441296,24.8987854 143.896761,24.8987854 L145.991903,24.8987854 C146.447368,24.8987854 146.811741,24.534413 146.811741,24.0789474 L146.811741,14.2105263 L149.453441,14.2105263 L155.55668,24.5040486 C155.708502,24.7469636 155.981781,24.8987854 156.255061,24.8987854 L158.653846,24.8987854 C158.95749,24.8987854 159.230769,24.7469636 159.352227,24.4736842 C159.473684,24.2307692 159.473684,23.9271255 159.321862,23.6538462" id="Shape"></path>
            <path d="M179.878543,16.6700405 C179.392713,17.7327935 178.694332,18.6133603 177.84413,19.2813765 C176.993927,19.9797571 175.931174,20.4959514 174.746964,20.8299595 C173.532389,21.1639676 172.196356,21.3461538 170.799595,21.3461538 L167.277328,21.3461538 L167.277328,4.28137652 L170.799595,4.28137652 C172.196356,4.28137652 173.532389,4.46356275 174.746964,4.79757085 C175.931174,5.13157895 176.963563,5.64777328 177.84413,6.34615385 C178.694332,7.01417004 179.392713,7.89473684 179.878543,8.95748988 C180.364372,10.0202429 180.637652,11.2955466 180.637652,12.7834008 C180.637652,14.2712551 180.364372,15.6072874 179.878543,16.6700405 M184.342105,12.8137652 C184.342105,12.5101215 184.311741,12.0242915 184.251012,11.3259109 C184.190283,10.6275304 184.008097,9.80769231 183.765182,8.92712551 C183.522267,8.0465587 183.097166,7.10526316 182.550607,6.16396761 C181.973684,5.19230769 181.214575,4.28137652 180.242915,3.49190283 C179.271255,2.70242915 178.05668,2.03441296 176.59919,1.51821862 C175.172065,1.00202429 173.410931,0.759109312 171.376518,0.759109312 L164.423077,0.759109312 C163.967611,0.759109312 163.603239,1.12348178 163.603239,1.57894737 L163.603239,24.1093117 C163.603239,24.5647773 163.967611,24.9291498 164.423077,24.9291498 L171.376518,24.9291498 C173.410931,24.9291498 175.172065,24.6862348 176.59919,24.1700405 C178.05668,23.6538462 179.271255,22.98583 180.242915,22.1963563 C181.214575,21.3765182 182.004049,20.4959514 182.550607,19.4939271 C183.097166,18.5526316 183.522267,17.611336 183.765182,16.7307692 C184.038462,15.8502024 184.190283,15.0607287 184.251012,14.3319838 C184.311741,13.6032389 184.342105,13.1174089 184.342105,12.8137652" id="Shape"></path>
            <path d="M226.396761,10.6578947 L222.753036,10.6578947 L222.753036,4.28137652 L226.396761,4.28137652 C227.398785,4.28137652 228.188259,4.40283401 228.795547,4.64574899 C229.37247,4.88866397 229.827935,5.16194332 230.101215,5.46558704 C230.404858,5.76923077 230.587045,6.10323887 230.678138,6.43724696 C230.799595,6.83198381 230.860324,7.19635628 230.860324,7.46963563 C230.860324,7.77327935 230.799595,8.10728745 230.678138,8.50202429 C230.587045,8.83603239 230.374494,9.17004049 230.101215,9.47368421 C229.797571,9.77732794 229.37247,10.0809717 228.795547,10.2935223 C228.218623,10.5668016 227.398785,10.6578947 226.396761,10.6578947 M235.293522,23.6538462 L229.342105,13.8461538 C229.615385,13.7854251 229.919028,13.694332 230.222672,13.6032389 C230.981781,13.3603239 231.710526,12.9959514 232.348178,12.5101215 C232.98583,11.9939271 233.532389,11.3562753 233.95749,10.5364372 C234.382591,9.71659919 234.595142,8.68421053 234.595142,7.46963563 C234.595142,6.37651822 234.412955,5.43522267 234.048583,4.64574899 C233.684211,3.88663968 233.228745,3.21862348 232.651822,2.70242915 C232.074899,2.18623482 231.437247,1.79149798 230.738866,1.51821862 C230.07085,1.27530364 229.433198,1.09311741 228.795547,0.971659919 C228.188259,0.850202429 227.580972,0.789473684 227.034413,0.759109312 C226.518219,0.728744939 226.093117,0.728744939 225.789474,0.728744939 L219.868421,0.728744939 C219.412955,0.728744939 219.048583,1.09311741 219.048583,1.548583 L219.048583,24.0789474 C219.048583,24.534413 219.412955,24.8987854 219.868421,24.8987854 L221.963563,24.8987854 C222.419028,24.8987854 222.783401,24.534413 222.783401,24.0789474 L222.783401,14.2105263 L225.425101,14.2105263 L231.52834,24.5040486 C231.680162,24.7469636 231.953441,24.8987854 232.226721,24.8987854 L234.625506,24.8987854 C234.92915,24.8987854 235.202429,24.7469636 235.323887,24.4736842 C235.445344,24.2307692 235.445344,23.9271255 235.293522,23.6538462" id="Shape"></path>
            <path d="M243.248988,4.28137652 L246.771255,4.28137652 C248.168016,4.28137652 249.504049,4.46356275 250.718623,4.79757085 C251.902834,5.13157895 252.935223,5.64777328 253.815789,6.34615385 C254.665992,7.01417004 255.364372,7.89473684 255.850202,8.95748988 C256.336032,10.0202429 256.609312,11.2955466 256.609312,12.7834008 C256.609312,14.2712551 256.366397,15.5465587 255.850202,16.6093117 C255.364372,17.6720648 254.665992,18.5526316 253.815789,19.2206478 C252.965587,19.9190283 251.902834,20.4352227 250.718623,20.7692308 C249.504049,21.1032389 248.168016,21.2854251 246.771255,21.2854251 L243.248988,21.2854251 L243.248988,4.28137652 Z M260.313765,12.8137652 C260.313765,12.5101215 260.283401,12.0242915 260.222672,11.3259109 C260.161943,10.6275304 259.979757,9.80769231 259.736842,8.92712551 C259.463563,8.0465587 259.068826,7.10526316 258.522267,6.16396761 C257.945344,5.19230769 257.186235,4.28137652 256.214575,3.49190283 C255.242915,2.70242915 254.02834,2.03441296 252.57085,1.51821862 C251.143725,1.00202429 249.382591,0.759109312 247.348178,0.759109312 L240.394737,0.759109312 C239.939271,0.759109312 239.574899,1.12348178 239.574899,1.57894737 L239.574899,24.1093117 C239.574899,24.5647773 239.939271,24.9291498 240.394737,24.9291498 L247.348178,24.9291498 C249.382591,24.9291498 251.143725,24.6862348 252.57085,24.1700405 C254.02834,23.6538462 255.242915,22.98583 256.214575,22.1963563 C257.186235,21.4068826 257.975709,20.4959514 258.522267,19.4939271 C259.068826,18.5526316 259.463563,17.611336 259.736842,16.7307692 C260.010121,15.8502024 260.161943,15.0607287 260.222672,14.3319838 C260.283401,13.6032389 260.313765,13.1174089 260.313765,12.8137652 L260.313765,12.8137652 Z" id="Shape"></path>
            <path d="M279.92915,24.0789474 L279.92915,22.1659919 C279.92915,21.7105263 279.564777,21.3461538 279.109312,21.3461538 L267.753036,21.3461538 L267.753036,14.2105263 L277.894737,14.2105263 C278.350202,14.2105263 278.714575,13.8461538 278.714575,13.3906883 L278.714575,11.4777328 C278.714575,11.0222672 278.350202,10.6578947 277.894737,10.6578947 L267.753036,10.6578947 L267.753036,4.28137652 L278.623482,4.28137652 C279.078947,4.28137652 279.44332,3.91700405 279.44332,3.46153846 L279.44332,1.548583 C279.44332,1.09311741 279.078947,0.728744939 278.623482,0.728744939 L264.838057,0.728744939 C264.382591,0.728744939 264.018219,1.09311741 264.018219,1.548583 L264.018219,24.0789474 C264.018219,24.534413 264.382591,24.8987854 264.838057,24.8987854 L279.109312,24.8987854 C279.564777,24.8987854 279.92915,24.534413 279.92915,24.0789474" id="Path"></path>
            <path d="M290.890688,10.6578947 L287.246964,10.6578947 L287.246964,4.28137652 L290.890688,4.28137652 C291.892713,4.28137652 292.682186,4.40283401 293.289474,4.64574899 C293.866397,4.88866397 294.321862,5.16194332 294.595142,5.46558704 C294.868421,5.76923077 295.080972,6.10323887 295.172065,6.43724696 C295.293522,6.83198381 295.354251,7.19635628 295.354251,7.46963563 C295.354251,7.77327935 295.293522,8.10728745 295.172065,8.50202429 C295.080972,8.83603239 294.868421,9.17004049 294.595142,9.47368421 C294.291498,9.77732794 293.866397,10.0809717 293.289474,10.2935223 C292.682186,10.5668016 291.892713,10.6578947 290.890688,10.6578947 M299.757085,23.6538462 L293.805668,13.8461538 C294.109312,13.7854251 294.382591,13.694332 294.686235,13.6032389 C295.445344,13.3603239 296.174089,12.9959514 296.811741,12.5101215 C297.479757,11.9939271 297.995951,11.3562753 298.421053,10.5364372 C298.846154,9.71659919 299.058704,8.68421053 299.058704,7.46963563 C299.058704,6.37651822 298.876518,5.43522267 298.512146,4.64574899 C298.147773,3.88663968 297.692308,3.21862348 297.115385,2.70242915 C296.538462,2.18623482 295.90081,1.79149798 295.202429,1.51821862 C294.534413,1.27530364 293.896761,1.09311741 293.259109,0.971659919 C292.651822,0.850202429 292.044534,0.789473684 291.497976,0.759109312 C290.981781,0.728744939 290.55668,0.728744939 290.253036,0.728744939 L284.331984,0.728744939 C283.876518,0.728744939 283.512146,1.09311741 283.512146,1.548583 L283.512146,24.0789474 C283.512146,24.534413 283.876518,24.8987854 284.331984,24.8987854 L286.427126,24.8987854 C286.882591,24.8987854 287.246964,24.534413 287.246964,24.0789474 L287.246964,14.2105263 L289.888664,14.2105263 L295.991903,24.5040486 C296.143725,24.7469636 296.417004,24.8987854 296.690283,24.8987854 L299.089069,24.8987854 C299.392713,24.8987854 299.665992,24.7469636 299.787449,24.4736842 C299.939271,24.2307692 299.908907,23.9271255 299.757085,23.6538462" id="Shape"></path>
            <g id="Group" transform="translate(115.688259, 0.000000)">
                <path d="M21.5587045,21.3461538 C21.5283401,21.1032389 21.4068826,20.8906883 21.2246964,20.7388664 L19.5242915,19.5546559 C19.1902834,19.3421053 18.7651822,19.3724696 18.4919028,19.645749 C17.7935223,20.3137652 16.9736842,20.8603239 16.062753,21.2550607 C13.937247,22.1659919 10.9311741,22.1659919 8.77530364,21.2550607 C7.71255061,20.7995951 6.80161943,20.1619433 6.04251012,19.3421053 C5.28340081,18.5222672 4.70647773,17.5506073 4.31174089,16.4574899 C3.88663968,15.3340081 3.70445344,14.1194332 3.70445344,12.8137652 C3.70445344,11.6295547 3.88663968,10.5060729 4.25101215,9.44331984 C4.37246964,9.10931174 4.25101215,8.7145749 3.94736842,8.53238866 L2.18623482,7.28744939 C1.97368421,7.13562753 1.70040486,7.1659919 1.45748988,7.22672065 C1.2145749,7.28744939 1.00202429,7.53036437 0.910931174,7.77327935 C0.303643725,9.29149798 0,10.9919028 0,12.8137652 C0,14.6356275 0.303643725,16.3360324 0.910931174,17.854251 C1.51821862,19.402834 2.39878543,20.7692308 3.46153846,21.8623482 C4.55465587,22.98583 5.89068826,23.8663968 7.40890688,24.5040486 C8.92712551,25.111336 10.6275304,25.4453441 12.4493927,25.4453441 C14.2712551,25.4453441 15.9716599,25.1417004 17.4898785,24.5040486 C18.9777328,23.8967611 20.2530364,23.0465587 21.3461538,21.9534413 C21.4979757,21.8016194 21.5890688,21.5890688 21.5587045,21.3461538" id="Path"></path>
                <path d="M24.8987854,12.8137652 C24.8987854,10.9919028 24.5951417,9.29149798 23.9878543,7.77327935 C23.3805668,6.22469636 22.5,4.88866397 21.437247,3.76518219 C20.3441296,2.6417004 19.0080972,1.7611336 17.4898785,1.12348178 C14.4230769,-0.151821862 10.4757085,-0.151821862 7.40890688,1.12348178 C5.951417,1.73076923 4.64574899,2.58097166 3.58299595,3.67408907 C3.40080972,3.8562753 3.34008097,4.06882591 3.34008097,4.31174089 C3.37044534,4.55465587 3.49190283,4.76720648 3.67408907,4.91902834 L5.34412955,6.10323887 C5.67813765,6.31578947 6.10323887,6.2854251 6.37651822,6.01214575 C7.07489879,5.34412955 7.89473684,4.79757085 8.77530364,4.40283401 C10.9311741,3.49190283 13.9068826,3.49190283 16.062753,4.40283401 C17.1255061,4.8582996 18.0364372,5.49595142 18.7955466,6.31578947 C19.5546559,7.10526316 20.1315789,8.07692308 20.5263158,9.20040486 C20.951417,10.3238866 21.1336032,11.5384615 21.1336032,12.8441296 C21.1336032,14.0283401 20.951417,15.1518219 20.5870445,16.2145749 C20.465587,16.548583 20.5870445,16.9433198 20.8906883,17.1255061 L22.6518219,18.3704453 C22.7732794,18.4615385 22.8947368,18.4919028 23.0465587,18.4919028 C23.1680162,18.4919028 23.2894737,18.4615385 23.3805668,18.4311741 C23.6234818,18.3704453 23.8360324,18.1275304 23.9271255,17.8846154 C24.5951417,16.3360324 24.8987854,14.6356275 24.8987854,12.8137652" id="Path"></path>
            </g>
            <g id="Group" transform="translate(190.384615, 0.000000)">
                <path d="M24.9291498,12.8137652 C24.9291498,10.9919028 24.6255061,9.29149798 23.9574899,7.65182186 C23.8663968,7.40890688 23.6842105,7.25708502 23.4412955,7.1659919 C23.1983806,7.10526316 22.9554656,7.13562753 22.742915,7.28744939 L20.9817814,8.53238866 C20.6781377,8.74493927 20.5566802,9.10931174 20.6781377,9.44331984 C21.0425101,10.5060729 21.2246964,11.6295547 21.2246964,12.8137652 C21.2246964,14.1194332 21.0121457,15.3340081 20.6174089,16.4574899 C20.2226721,17.5506073 19.6153846,18.5222672 18.8866397,19.3421053 C18.1275304,20.1315789 17.2165992,20.7995951 16.1538462,21.2550607 C13.9979757,22.1659919 11.0222672,22.1659919 8.86639676,21.2550607 C7.95546559,20.8603239 7.13562753,20.3137652 6.43724696,19.645749 C6.16396761,19.3724696 5.70850202,19.3421053 5.4048583,19.5546559 L3.70445344,20.7388664 C3.52226721,20.8603239 3.37044534,21.1032389 3.37044534,21.3461538 C3.34008097,21.5890688 3.43117409,21.8319838 3.61336032,21.9838057 C4.70647773,23.0769231 5.98178138,23.9271255 7.46963563,24.534413 C8.98785425,25.1417004 10.6882591,25.4757085 12.5101215,25.4757085 C14.3319838,25.4757085 16.0323887,25.1720648 17.5506073,24.534413 C19.0688259,23.9271255 20.4048583,23.0161943 21.4979757,21.8927126 C22.5910931,20.7692308 23.4412955,19.402834 24.048583,17.854251 C24.6255061,16.3360324 24.9291498,14.6356275 24.9291498,12.8137652" id="Path"></path>
                <path d="M21.5890688,4.31174089 C21.6194332,4.06882591 21.5283401,3.82591093 21.3461538,3.67408907 C20.2834008,2.58097166 18.9777328,1.73076923 17.5202429,1.12348178 C14.4534413,-0.151821862 10.5060729,-0.151821862 7.43927126,1.12348178 C5.92105263,1.7611336 4.58502024,2.6417004 3.49190283,3.76518219 C2.39878543,4.88866397 1.548583,6.22469636 0.941295547,7.77327935 C0.334008097,9.29149798 0.0303643725,10.9919028 0.0303643725,12.8137652 C0.0303643725,14.6356275 0.334008097,16.3360324 1.00202429,17.9757085 C1.09311741,18.2186235 1.27530364,18.4008097 1.51821862,18.4615385 C1.60931174,18.4919028 1.67004049,18.4919028 1.7611336,18.4919028 C1.91295547,18.4919028 2.0951417,18.4311741 2.21659919,18.340081 L3.97773279,17.0951417 C4.28137652,16.8825911 4.40283401,16.5182186 4.28137652,16.1842105 C3.91700405,15.1214575 3.73481781,13.9979757 3.73481781,12.8137652 C3.73481781,11.5080972 3.94736842,10.2935223 4.34210526,9.17004049 C4.73684211,8.07692308 5.34412955,7.10526316 6.07287449,6.2854251 C6.83198381,5.49595142 7.74291498,4.82793522 8.80566802,4.37246964 C10.9311741,3.46153846 13.937247,3.46153846 16.0931174,4.37246964 C17.0040486,4.76720648 17.8238866,5.31376518 18.4919028,5.98178138 C18.7651822,6.25506073 19.2206478,6.2854251 19.5242915,6.07287449 L21.194332,4.88866397 C21.437247,4.76720648 21.5587045,4.55465587 21.5890688,4.31174089" id="Path"></path>
            </g>
        </g>
    </g>
</svg>