<?xml version="1.0" encoding="UTF-8"?>
<svg width="988px" height="84px" viewBox="0 0 988 84" version="1.1" xmlns="http://www.w3.org/2000/svg" xmlns:xlink="http://www.w3.org/1999/xlink">
    <!-- Generator: Sketch 52.5 (67469) - http://www.bohemiancoding.com/sketch -->
    <title>nwo-horizontal-rgb copy</title>
    <desc>Created with Sketch.</desc>
    <g id="Page-1" stroke="none" stroke-width="1" fill="none" fill-rule="evenodd">
        <g id="nwo-horizontal-rgb-copy">
            <path d="M67,79.3 L67,5.1 C67,3.6 65.8,2.4 64.3,2.4 L57.4,2.4 C55.9,2.4 54.7,3.6 54.7,5.1 L54.7,61.8 L14.3,3.6 C13.8,2.9 13,2.5 12.1,2.5 L3.2,2.5 C1.7,2.5 0.5,3.7 0.5,5.2 L0.5,79.4 C0.5,80.9 1.7,82.1 3.2,82.1 L10.1,82.1 C11.6,82.1 12.8,80.9 12.8,79.4 L12.8,22.6 L53.3,80.9 C53.8,81.6 54.6,82 55.5,82 L64.4,82 C65.8,82 67,80.8 67,79.3" id="Path" fill="#FFFFFF"></path>
            <path d="M134.4,79.3 L134.4,73 C134.4,71.5 133.2,70.3 131.7,70.3 L94.3,70.3 L94.3,46.8 L127.7,46.8 C129.2,46.8 130.4,45.6 130.4,44.1 L130.4,37.8 C130.4,36.3 129.2,35.1 127.7,35.1 L94.3,35.1 L94.3,14.1 L130.1,14.1 C131.6,14.1 132.8,12.9 132.8,11.4 L132.8,5.1 C132.8,3.6 131.6,2.4 130.1,2.4 L84.7,2.4 C83.2,2.4 82,3.6 82,5.1 L82,79.3 C82,80.8 83.2,82 84.7,82 L131.7,82 C133.2,82 134.4,80.8 134.4,79.3" id="Path" fill="#FFFFFF"></path>
            <path d="M243.9,5.9 C244.1,5.1 244,4.2 243.5,3.5 C243,2.8 242.2,2.4 241.4,2.4 L234.3,2.4 C233.1,2.4 232,3.2 231.7,4.4 L215.7,61.4 L199.4,4.4 C199.1,3.3 198,2.5 196.8,2.5 L188,2.5 C186.8,2.5 185.7,3.3 185.4,4.4 L169.1,61.4 L153.1,4.5 C152.8,3.3 151.7,2.5 150.5,2.5 L143.4,2.5 C142.6,2.5 141.8,2.9 141.3,3.6 C140.8,4.3 140.6,5.2 140.9,6 L162.5,80.2 C162.8,81.3 163.9,82.1 165.1,82.1 L173.6,82.1 C174.8,82.1 175.8,81.3 176.2,80.1 L192.5,22.8 L208.7,80 C209,81.2 210.1,82 211.3,82 L219.8,82 C221,82 222,81.2 222.4,80.1 L243.9,5.9 Z" id="Path" fill="#FFFFFF"></path>
            <path d="M374.2,5.9 C374.4,5.1 374.3,4.2 373.8,3.5 C373.3,2.8 372.5,2.4 371.7,2.4 L364.6,2.4 C363.4,2.4 362.3,3.2 362,4.4 L346,61.4 L329.7,4.4 C329.4,3.3 328.3,2.5 327.1,2.5 L318.3,2.5 C317.1,2.5 316,3.3 315.7,4.4 L299.4,61.4 L283.4,4.5 C283.1,3.3 282,2.5 280.8,2.5 L273.7,2.5 C272.9,2.5 272.1,2.9 271.6,3.6 C271.1,4.3 270.9,5.2 271.2,6 L292.8,80.2 C293.1,81.3 294.2,82.1 295.4,82.1 L303.9,82.1 C305.1,82.1 306.2,81.3 306.5,80.1 L322.8,22.8 L339,80 C339.3,81.2 340.4,82 341.6,82 L350.1,82 C351.3,82 352.3,81.2 352.7,80.1 L374.2,5.9 Z" id="Path" fill="#FFFFFF"></path>
            <path d="M495.5,35.1 L483.5,35.1 L483.5,14.1 L495.5,14.1 C498.8,14.1 501.4,14.5 503.4,15.3 C505.3,16.1 506.8,17 507.7,18 C508.7,19 509.3,20.1 509.6,21.2 C510,22.5 510.2,23.7 510.2,24.6 C510.2,25.6 510,26.7 509.6,28 C509.3,29.1 508.6,30.2 507.7,31.2 C506.7,32.2 505.3,33.2 503.4,33.9 C501.4,34.8 498.8,35.1 495.5,35.1 M524.7,77.9 L505.1,45.6 C506,45.4 507,45.1 508,44.8 C510.5,44 512.9,42.8 515,41.2 C517.2,39.5 518.9,37.3 520.3,34.7 C521.7,32 522.4,28.6 522.4,24.6 C522.4,21 521.8,17.9 520.6,15.3 C519.4,12.8 517.9,10.6 516,8.9 C514.2,7.2 512,5.9 509.7,5 C507.5,4.2 505.4,3.6 503.3,3.2 C501.3,2.8 499.3,2.6 497.5,2.5 C495.8,2.4 494.4,2.4 493.4,2.4 L473.9,2.4 C472.4,2.4 471.2,3.6 471.2,5.1 L471.2,79.3 C471.2,80.8 472.4,82 473.9,82 L480.8,82 C482.3,82 483.5,80.8 483.5,79.3 L483.5,46.8 L492.2,46.8 L512.3,80.7 C512.8,81.5 513.7,82 514.6,82 L522.5,82 C523.5,82 524.4,81.5 524.8,80.6 C525.2,79.8 525.2,78.8 524.7,77.9" id="Shape" fill="#FFFFFF" fill-rule="nonzero"></path>
            <path d="M592.4,54.9 C590.8,58.4 588.5,61.3 585.7,63.5 C582.9,65.8 579.4,67.5 575.5,68.6 C571.5,69.7 567.1,70.3 562.5,70.3 L550.9,70.3 L550.9,14.1 L562.5,14.1 C567.1,14.1 571.5,14.7 575.5,15.8 C579.4,16.9 582.8,18.6 585.7,20.9 C588.5,23.1 590.8,26 592.4,29.5 C594,33 594.9,37.2 594.9,42.1 C594.9,47 594,51.4 592.4,54.9 M607.1,42.2 C607.1,41.2 607,39.6 606.8,37.3 C606.6,35 606,32.3 605.2,29.4 C604.4,26.5 603,23.4 601.2,20.3 C599.3,17.1 596.8,14.1 593.6,11.5 C590.4,8.9 586.4,6.7 581.6,5 C576.9,3.3 571.1,2.5 564.4,2.5 L541.5,2.5 C540,2.5 538.8,3.7 538.8,5.2 L538.8,79.4 C538.8,80.9 540,82.1 541.5,82.1 L564.4,82.1 C571.1,82.1 576.9,81.3 581.6,79.6 C586.4,77.9 590.4,75.7 593.6,73.1 C596.8,70.4 599.4,67.5 601.2,64.2 C603,61.1 604.4,58 605.2,55.1 C606.1,52.2 606.6,49.6 606.8,47.2 C607,44.8 607.1,43.2 607.1,42.2" id="Shape" fill="#FFFFFF" fill-rule="nonzero"></path>
            <path d="M745.6,35.1 L733.6,35.1 L733.6,14.1 L745.6,14.1 C748.9,14.1 751.5,14.5 753.5,15.3 C755.4,16.1 756.9,17 757.8,18 C758.8,19 759.4,20.1 759.7,21.2 C760.1,22.5 760.3,23.7 760.3,24.6 C760.3,25.6 760.1,26.7 759.7,28 C759.4,29.1 758.7,30.2 757.8,31.2 C756.8,32.2 755.4,33.2 753.5,33.9 C751.6,34.8 748.9,35.1 745.6,35.1 M774.9,77.9 L755.3,45.6 C756.2,45.4 757.2,45.1 758.2,44.8 C760.7,44 763.1,42.8 765.2,41.2 C767.3,39.5 769.1,37.4 770.5,34.7 C771.9,32 772.6,28.6 772.6,24.6 C772.6,21 772,17.9 770.8,15.3 C769.6,12.8 768.1,10.6 766.2,8.9 C764.3,7.2 762.2,5.9 759.9,5 C757.7,4.2 755.6,3.6 753.5,3.2 C751.5,2.8 749.5,2.6 747.7,2.5 C746,2.4 744.6,2.4 743.6,2.4 L724.1,2.4 C722.6,2.4 721.4,3.6 721.4,5.1 L721.4,79.3 C721.4,80.8 722.6,82 724.1,82 L731,82 C732.5,82 733.7,80.8 733.7,79.3 L733.7,46.8 L742.4,46.8 L762.5,80.7 C763,81.5 763.9,82 764.8,82 L772.7,82 C773.7,82 774.6,81.5 775,80.6 C775.4,79.8 775.4,78.8 774.9,77.9" id="Shape" fill="#FFFFFF" fill-rule="nonzero"></path>
            <path d="M801.1,14.1 L812.7,14.1 C817.3,14.1 821.7,14.7 825.7,15.8 C829.6,16.9 833,18.6 835.9,20.9 C838.7,23.1 841,26 842.6,29.5 C844.2,33 845.1,37.2 845.1,42.1 C845.1,47 844.3,51.2 842.6,54.7 C841,58.2 838.7,61.1 835.9,63.3 C833.1,65.6 829.6,67.3 825.7,68.4 C821.7,69.5 817.3,70.1 812.7,70.1 L801.1,70.1 L801.1,14.1 Z M857.3,42.2 C857.3,41.2 857.2,39.6 857,37.3 C856.8,35 856.2,32.3 855.4,29.4 C854.5,26.5 853.2,23.4 851.4,20.3 C849.5,17.1 847,14.1 843.8,11.5 C840.6,8.9 836.6,6.7 831.8,5 C827.1,3.3 821.3,2.5 814.6,2.5 L791.7,2.5 C790.2,2.5 789,3.7 789,5.2 L789,79.4 C789,80.9 790.2,82.1 791.7,82.1 L814.6,82.1 C821.3,82.1 827.1,81.3 831.8,79.6 C836.6,77.9 840.6,75.7 843.8,73.1 C847,70.5 849.6,67.5 851.4,64.2 C853.2,61.1 854.5,58 855.4,55.1 C856.3,52.2 856.8,49.6 857,47.2 C857.2,44.8 857.3,43.2 857.3,42.2 Z" id="Shape" fill="#FFFFFF" fill-rule="nonzero"></path>
            <path d="M921.9,79.3 L921.9,73 C921.9,71.5 920.7,70.3 919.2,70.3 L881.8,70.3 L881.8,46.8 L915.2,46.8 C916.7,46.8 917.9,45.6 917.9,44.1 L917.9,37.8 C917.9,36.3 916.7,35.1 915.2,35.1 L881.8,35.1 L881.8,14.1 L917.6,14.1 C919.1,14.1 920.3,12.9 920.3,11.4 L920.3,5.1 C920.3,3.6 919.1,2.4 917.6,2.4 L872.2,2.4 C870.7,2.4 869.5,3.6 869.5,5.1 L869.5,79.3 C869.5,80.8 870.7,82 872.2,82 L919.2,82 C920.7,82 921.9,80.8 921.9,79.3" id="Path" fill="#FFFFFF"></path>
            <path d="M958,35.1 L946,35.1 L946,14.1 L958,14.1 C961.3,14.1 963.9,14.5 965.9,15.3 C967.8,16.1 969.3,17 970.2,18 C971.1,19 971.8,20.1 972.1,21.2 C972.5,22.5 972.7,23.7 972.7,24.6 C972.7,25.6 972.5,26.7 972.1,28 C971.8,29.1 971.1,30.2 970.2,31.2 C969.2,32.2 967.8,33.2 965.9,33.9 C963.9,34.8 961.3,35.1 958,35.1 M987.2,77.9 L967.6,45.6 C968.6,45.4 969.5,45.1 970.5,44.8 C973,44 975.4,42.8 977.5,41.2 C979.7,39.5 981.4,37.4 982.8,34.7 C984.2,32 984.9,28.6 984.9,24.6 C984.9,21 984.3,17.9 983.1,15.3 C981.9,12.8 980.4,10.6 978.5,8.9 C976.6,7.2 974.5,5.9 972.2,5 C970,4.2 967.9,3.6 965.8,3.2 C963.8,2.8 961.8,2.6 960,2.5 C958.3,2.4 956.9,2.4 955.9,2.4 L936.4,2.4 C934.9,2.4 933.7,3.6 933.7,5.1 L933.7,79.3 C933.7,80.8 934.9,82 936.4,82 L943.3,82 C944.8,82 946,80.8 946,79.3 L946,46.8 L954.7,46.8 L974.8,80.7 C975.3,81.5 976.2,82 977.1,82 L985,82 C986,82 986.9,81.5 987.3,80.6 C987.8,79.8 987.7,78.8 987.2,77.9" id="Shape" fill="#FFFFFF" fill-rule="nonzero"></path>
            <g id="Group" transform="translate(381.000000, 0.000000)">
                <path d="M71,70.3 C70.9,69.5 70.5,68.8 69.9,68.3 L64.3,64.4 C63.2,63.7 61.8,63.8 60.9,64.7 C58.6,66.9 55.9,68.7 52.9,70 C45.9,73 36,73 28.9,70 C25.4,68.5 22.4,66.4 19.9,63.7 C17.4,61 15.5,57.8 14.2,54.2 C12.8,50.5 12.2,46.5 12.2,42.2 C12.2,38.3 12.8,34.6 14,31.1 C14.4,30 14,28.7 13,28.1 L7.2,24 C6.5,23.5 5.6,23.6 4.8,23.8 C4,24 3.3,24.8 3,25.6 C1,30.6 0,36.2 0,42.2 C0,48.2 1,53.8 3,58.8 C5,63.9 7.9,68.4 11.4,72 C15,75.7 19.4,78.6 24.4,80.7 C29.4,82.7 35,83.8 41,83.8 C47,83.8 52.6,82.8 57.6,80.7 C62.5,78.7 66.7,75.9 70.3,72.3 C70.8,71.8 71.1,71.1 71,70.3" id="Path" fill="#79CDCD"></path>
                <path d="M82,42.2 C82,36.2 81,30.6 79,25.6 C77,20.5 74.1,16.1 70.6,12.4 C67,8.7 62.6,5.8 57.6,3.7 C47.5,-0.5 34.5,-0.5 24.4,3.7 C19.6,5.7 15.3,8.5 11.8,12.1 C11.2,12.7 11,13.4 11,14.2 C11.1,15 11.5,15.7 12.1,16.2 L17.6,20.1 C18.7,20.8 20.1,20.7 21,19.8 C23.3,17.6 26,15.8 28.9,14.5 C36,11.5 45.8,11.5 52.9,14.5 C56.4,16 59.4,18.1 61.9,20.8 C64.4,23.4 66.3,26.6 67.6,30.3 C69,34 69.6,38 69.6,42.3 C69.6,46.2 69,49.9 67.8,53.4 C67.4,54.5 67.8,55.8 68.8,56.4 L74.6,60.5 C75,60.8 75.4,60.9 75.9,60.9 C76.3,60.9 76.7,60.8 77,60.7 C77.8,60.5 78.5,59.7 78.8,58.9 C81,53.8 82,48.2 82,42.2" id="Path" fill="#FFFFFF"></path>
            </g>
            <g id="Group" transform="translate(627.000000, 0.000000)">
                <path d="M82.1,42.2 C82.1,36.2 81.1,30.6 78.9,25.2 C78.6,24.4 78,23.9 77.2,23.6 C76.4,23.4 75.6,23.5 74.9,24 L69.1,28.1 C68.1,28.8 67.7,30 68.1,31.1 C69.3,34.6 69.9,38.3 69.9,42.2 C69.9,46.5 69.2,50.5 67.9,54.2 C66.6,57.8 64.6,61 62.2,63.7 C59.7,66.3 56.7,68.5 53.2,70 C46.1,73 36.3,73 29.2,70 C26.2,68.7 23.5,66.9 21.2,64.7 C20.3,63.8 18.8,63.7 17.8,64.4 L12.2,68.3 C11.6,68.7 11.1,69.5 11.1,70.3 C11,71.1 11.3,71.9 11.9,72.4 C15.5,76 19.7,78.8 24.6,80.8 C29.6,82.8 35.2,83.9 41.2,83.9 C47.2,83.9 52.8,82.9 57.8,80.8 C62.8,78.8 67.2,75.8 70.8,72.1 C74.4,68.4 77.2,63.9 79.2,58.8 C81.1,53.8 82.1,48.2 82.1,42.2" id="Path" fill="#FFFFFF"></path>
                <path d="M71.1,14.2 C71.2,13.4 70.9,12.6 70.3,12.1 C66.8,8.5 62.5,5.7 57.7,3.7 C47.6,-0.5 34.6,-0.5 24.5,3.7 C19.5,5.8 15.1,8.7 11.5,12.4 C7.9,16.1 5.1,20.5 3.1,25.6 C1.1,30.6 0.1,36.2 0.1,42.2 C0.1,48.2 1.1,53.8 3.3,59.2 C3.6,60 4.2,60.6 5,60.8 C5.3,60.9 5.5,60.9 5.8,60.9 C6.3,60.9 6.9,60.7 7.3,60.4 L13.1,56.3 C14.1,55.6 14.5,54.4 14.1,53.3 C12.9,49.8 12.3,46.1 12.3,42.2 C12.3,37.9 13,33.9 14.3,30.2 C15.6,26.6 17.6,23.4 20,20.7 C22.5,18.1 25.5,15.9 29,14.4 C36,11.4 45.9,11.4 53,14.4 C56,15.7 58.7,17.5 60.9,19.7 C61.8,20.6 63.3,20.7 64.3,20 L69.8,16.1 C70.6,15.7 71,15 71.1,14.2" id="Path" fill="#F7935A"></path>
            </g>
        </g>
    </g>
</svg>